ISO-10303-21;
HEADER;
/* Generated by software containing ST-Developer
 * from STEP Tools, Inc. (www.steptools.com) 
 */
/* OPTION: using custom renumber hook */

FILE_DESCRIPTION(
/* description */ ('STEP AP214'),
/* implementation_level */ '2;1');

FILE_NAME(
/* name */ 'SSW-103-01-L-S',
/* time_stamp */ '2026-01-26T22:04:49+01:00',
/* author */ ('License CC BY-ND 4.0'),
/* organization */ ('CADENAS'),
/* preprocessor_version */ 'ST-DEVELOPER v20',
/* originating_system */ 'PARTsolutions',
/* authorisation */ '  ');

FILE_SCHEMA (('AUTOMOTIVE_DESIGN {1 0 10303 214 3 1 1}'));
ENDSEC;

DATA;
#10=PROPERTY_DEFINITION_REPRESENTATION(#14,#12);
#11=PROPERTY_DEFINITION_REPRESENTATION(#15,#13);
#12=REPRESENTATION('',(#16),#1793);
#13=REPRESENTATION('',(#17),#1793);
#14=PROPERTY_DEFINITION('pmi validation property','',#1805);
#15=PROPERTY_DEFINITION('pmi validation property','',#1805);
#16=VALUE_REPRESENTATION_ITEM('number of annotations',COUNT_MEASURE(0.));
#17=VALUE_REPRESENTATION_ITEM('number of views',COUNT_MEASURE(0.));
#18=DRAUGHTING_PRE_DEFINED_COLOUR('yellow');
#19=CONTEXT_DEPENDENT_SHAPE_REPRESENTATION(#23,#1807);
#20=CONTEXT_DEPENDENT_SHAPE_REPRESENTATION(#24,#1809);
#21=NEXT_ASSEMBLY_USAGE_OCCURRENCE('NAUO1','T1SSW-103-01-L-S',
'T1SSW-103-01-L-S',#1810,#1811,'');
#22=NEXT_ASSEMBLY_USAGE_OCCURRENCE('NAUO2','P2SSW-103-01-L-S',
'P2SSW-103-01-L-S',#1810,#1812,'');
#23=(
REPRESENTATION_RELATIONSHIP(' ',' ',#1150,#1149)
REPRESENTATION_RELATIONSHIP_WITH_TRANSFORMATION(#25)
SHAPE_REPRESENTATION_RELATIONSHIP()
);
#24=(
REPRESENTATION_RELATIONSHIP(' ',' ',#1151,#1149)
REPRESENTATION_RELATIONSHIP_WITH_TRANSFORMATION(#26)
SHAPE_REPRESENTATION_RELATIONSHIP()
);
#25=ITEM_DEFINED_TRANSFORMATION(' ',' ',#1152,#1183);
#26=ITEM_DEFINED_TRANSFORMATION(' ',' ',#1152,#1211);
#27=SHAPE_REPRESENTATION_RELATIONSHIP('','',#1150,#29);
#28=SHAPE_REPRESENTATION_RELATIONSHIP('','',#1151,#30);
#29=ADVANCED_BREP_SHAPE_REPRESENTATION('',(#1144),#1794);
#30=ADVANCED_BREP_SHAPE_REPRESENTATION('',(#1145),#1795);
#31=ORIENTED_EDGE('',*,*,#331,.F.);
#32=ORIENTED_EDGE('',*,*,#332,.F.);
#33=ORIENTED_EDGE('',*,*,#333,.F.);
#34=ORIENTED_EDGE('',*,*,#334,.T.);
#35=ORIENTED_EDGE('',*,*,#335,.F.);
#36=ORIENTED_EDGE('',*,*,#336,.F.);
#37=ORIENTED_EDGE('',*,*,#337,.F.);
#38=ORIENTED_EDGE('',*,*,#338,.T.);
#39=ORIENTED_EDGE('',*,*,#339,.F.);
#40=ORIENTED_EDGE('',*,*,#340,.F.);
#41=ORIENTED_EDGE('',*,*,#341,.F.);
#42=ORIENTED_EDGE('',*,*,#342,.T.);
#43=ORIENTED_EDGE('',*,*,#343,.F.);
#44=ORIENTED_EDGE('',*,*,#344,.F.);
#45=ORIENTED_EDGE('',*,*,#345,.T.);
#46=ORIENTED_EDGE('',*,*,#346,.T.);
#47=ORIENTED_EDGE('',*,*,#347,.F.);
#48=ORIENTED_EDGE('',*,*,#348,.T.);
#49=ORIENTED_EDGE('',*,*,#349,.F.);
#50=ORIENTED_EDGE('',*,*,#350,.F.);
#51=ORIENTED_EDGE('',*,*,#351,.T.);
#52=ORIENTED_EDGE('',*,*,#352,.T.);
#53=ORIENTED_EDGE('',*,*,#353,.F.);
#54=ORIENTED_EDGE('',*,*,#354,.F.);
#55=ORIENTED_EDGE('',*,*,#355,.F.);
#56=ORIENTED_EDGE('',*,*,#356,.T.);
#57=ORIENTED_EDGE('',*,*,#357,.F.);
#58=ORIENTED_EDGE('',*,*,#358,.F.);
#59=ORIENTED_EDGE('',*,*,#359,.F.);
#60=ORIENTED_EDGE('',*,*,#360,.T.);
#61=ORIENTED_EDGE('',*,*,#361,.F.);
#62=ORIENTED_EDGE('',*,*,#362,.F.);
#63=ORIENTED_EDGE('',*,*,#363,.T.);
#64=ORIENTED_EDGE('',*,*,#364,.T.);
#65=ORIENTED_EDGE('',*,*,#365,.F.);
#66=ORIENTED_EDGE('',*,*,#366,.T.);
#67=ORIENTED_EDGE('',*,*,#365,.T.);
#68=ORIENTED_EDGE('',*,*,#367,.T.);
#69=ORIENTED_EDGE('',*,*,#368,.F.);
#70=ORIENTED_EDGE('',*,*,#369,.T.);
#71=ORIENTED_EDGE('',*,*,#368,.T.);
#72=ORIENTED_EDGE('',*,*,#370,.T.);
#73=ORIENTED_EDGE('',*,*,#371,.F.);
#74=ORIENTED_EDGE('',*,*,#372,.T.);
#75=ORIENTED_EDGE('',*,*,#373,.T.);
#76=ORIENTED_EDGE('',*,*,#374,.T.);
#77=ORIENTED_EDGE('',*,*,#375,.F.);
#78=ORIENTED_EDGE('',*,*,#376,.T.);
#79=ORIENTED_EDGE('',*,*,#375,.T.);
#80=ORIENTED_EDGE('',*,*,#377,.T.);
#81=ORIENTED_EDGE('',*,*,#378,.F.);
#82=ORIENTED_EDGE('',*,*,#379,.T.);
#83=ORIENTED_EDGE('',*,*,#378,.T.);
#84=ORIENTED_EDGE('',*,*,#380,.T.);
#85=ORIENTED_EDGE('',*,*,#381,.F.);
#86=ORIENTED_EDGE('',*,*,#382,.T.);
#87=ORIENTED_EDGE('',*,*,#383,.T.);
#88=ORIENTED_EDGE('',*,*,#384,.T.);
#89=ORIENTED_EDGE('',*,*,#385,.F.);
#90=ORIENTED_EDGE('',*,*,#386,.T.);
#91=ORIENTED_EDGE('',*,*,#385,.T.);
#92=ORIENTED_EDGE('',*,*,#387,.T.);
#93=ORIENTED_EDGE('',*,*,#388,.F.);
#94=ORIENTED_EDGE('',*,*,#389,.T.);
#95=ORIENTED_EDGE('',*,*,#388,.T.);
#96=ORIENTED_EDGE('',*,*,#390,.T.);
#97=ORIENTED_EDGE('',*,*,#391,.F.);
#98=ORIENTED_EDGE('',*,*,#392,.T.);
#99=ORIENTED_EDGE('',*,*,#371,.T.);
#100=ORIENTED_EDGE('',*,*,#393,.T.);
#101=ORIENTED_EDGE('',*,*,#363,.F.);
#102=ORIENTED_EDGE('',*,*,#394,.T.);
#103=ORIENTED_EDGE('',*,*,#381,.T.);
#104=ORIENTED_EDGE('',*,*,#395,.T.);
#105=ORIENTED_EDGE('',*,*,#373,.F.);
#106=ORIENTED_EDGE('',*,*,#396,.T.);
#107=ORIENTED_EDGE('',*,*,#391,.T.);
#108=ORIENTED_EDGE('',*,*,#397,.T.);
#109=ORIENTED_EDGE('',*,*,#383,.F.);
#110=ORIENTED_EDGE('',*,*,#398,.T.);
#111=ORIENTED_EDGE('',*,*,#399,.F.);
#112=ORIENTED_EDGE('',*,*,#352,.F.);
#113=ORIENTED_EDGE('',*,*,#400,.F.);
#114=ORIENTED_EDGE('',*,*,#342,.F.);
#115=ORIENTED_EDGE('',*,*,#401,.F.);
#116=ORIENTED_EDGE('',*,*,#346,.F.);
#117=ORIENTED_EDGE('',*,*,#402,.F.);
#118=ORIENTED_EDGE('',*,*,#348,.F.);
#119=ORIENTED_EDGE('',*,*,#403,.F.);
#120=ORIENTED_EDGE('',*,*,#360,.F.);
#121=ORIENTED_EDGE('',*,*,#404,.F.);
#122=ORIENTED_EDGE('',*,*,#334,.F.);
#123=ORIENTED_EDGE('',*,*,#405,.F.);
#124=ORIENTED_EDGE('',*,*,#356,.F.);
#125=ORIENTED_EDGE('',*,*,#406,.F.);
#126=ORIENTED_EDGE('',*,*,#338,.F.);
#127=ORIENTED_EDGE('',*,*,#400,.T.);
#128=ORIENTED_EDGE('',*,*,#351,.F.);
#129=ORIENTED_EDGE('',*,*,#407,.F.);
#130=ORIENTED_EDGE('',*,*,#343,.T.);
#131=ORIENTED_EDGE('',*,*,#402,.T.);
#132=ORIENTED_EDGE('',*,*,#345,.F.);
#133=ORIENTED_EDGE('',*,*,#408,.F.);
#134=ORIENTED_EDGE('',*,*,#349,.T.);
#135=ORIENTED_EDGE('',*,*,#386,.F.);
#136=ORIENTED_EDGE('',*,*,#389,.F.);
#137=ORIENTED_EDGE('',*,*,#392,.F.);
#138=ORIENTED_EDGE('',*,*,#398,.F.);
#139=ORIENTED_EDGE('',*,*,#376,.F.);
#140=ORIENTED_EDGE('',*,*,#379,.F.);
#141=ORIENTED_EDGE('',*,*,#382,.F.);
#142=ORIENTED_EDGE('',*,*,#396,.F.);
#143=ORIENTED_EDGE('',*,*,#366,.F.);
#144=ORIENTED_EDGE('',*,*,#369,.F.);
#145=ORIENTED_EDGE('',*,*,#372,.F.);
#146=ORIENTED_EDGE('',*,*,#394,.F.);
#147=ORIENTED_EDGE('',*,*,#344,.T.);
#148=ORIENTED_EDGE('',*,*,#407,.T.);
#149=ORIENTED_EDGE('',*,*,#350,.T.);
#150=ORIENTED_EDGE('',*,*,#408,.T.);
#151=ORIENTED_EDGE('',*,*,#339,.T.);
#152=ORIENTED_EDGE('',*,*,#406,.T.);
#153=ORIENTED_EDGE('',*,*,#355,.T.);
#154=ORIENTED_EDGE('',*,*,#409,.T.);
#155=ORIENTED_EDGE('',*,*,#341,.T.);
#156=ORIENTED_EDGE('',*,*,#410,.F.);
#157=ORIENTED_EDGE('',*,*,#353,.T.);
#158=ORIENTED_EDGE('',*,*,#399,.T.);
#159=ORIENTED_EDGE('',*,*,#397,.F.);
#160=ORIENTED_EDGE('',*,*,#390,.F.);
#161=ORIENTED_EDGE('',*,*,#387,.F.);
#162=ORIENTED_EDGE('',*,*,#384,.F.);
#163=ORIENTED_EDGE('',*,*,#340,.T.);
#164=ORIENTED_EDGE('',*,*,#409,.F.);
#165=ORIENTED_EDGE('',*,*,#354,.T.);
#166=ORIENTED_EDGE('',*,*,#410,.T.);
#167=ORIENTED_EDGE('',*,*,#335,.T.);
#168=ORIENTED_EDGE('',*,*,#404,.T.);
#169=ORIENTED_EDGE('',*,*,#359,.T.);
#170=ORIENTED_EDGE('',*,*,#411,.T.);
#171=ORIENTED_EDGE('',*,*,#337,.T.);
#172=ORIENTED_EDGE('',*,*,#412,.F.);
#173=ORIENTED_EDGE('',*,*,#357,.T.);
#174=ORIENTED_EDGE('',*,*,#405,.T.);
#175=ORIENTED_EDGE('',*,*,#395,.F.);
#176=ORIENTED_EDGE('',*,*,#380,.F.);
#177=ORIENTED_EDGE('',*,*,#377,.F.);
#178=ORIENTED_EDGE('',*,*,#374,.F.);
#179=ORIENTED_EDGE('',*,*,#336,.T.);
#180=ORIENTED_EDGE('',*,*,#411,.F.);
#181=ORIENTED_EDGE('',*,*,#358,.T.);
#182=ORIENTED_EDGE('',*,*,#412,.T.);
#183=ORIENTED_EDGE('',*,*,#393,.F.);
#184=ORIENTED_EDGE('',*,*,#370,.F.);
#185=ORIENTED_EDGE('',*,*,#367,.F.);
#186=ORIENTED_EDGE('',*,*,#364,.F.);
#187=ORIENTED_EDGE('',*,*,#332,.T.);
#188=ORIENTED_EDGE('',*,*,#413,.F.);
#189=ORIENTED_EDGE('',*,*,#362,.T.);
#190=ORIENTED_EDGE('',*,*,#414,.T.);
#191=ORIENTED_EDGE('',*,*,#331,.T.);
#192=ORIENTED_EDGE('',*,*,#401,.T.);
#193=ORIENTED_EDGE('',*,*,#347,.T.);
#194=ORIENTED_EDGE('',*,*,#413,.T.);
#195=ORIENTED_EDGE('',*,*,#333,.T.);
#196=ORIENTED_EDGE('',*,*,#414,.F.);
#197=ORIENTED_EDGE('',*,*,#361,.T.);
#198=ORIENTED_EDGE('',*,*,#403,.T.);
#199=ORIENTED_EDGE('',*,*,#415,.F.);
#200=ORIENTED_EDGE('',*,*,#416,.F.);
#201=ORIENTED_EDGE('',*,*,#417,.F.);
#202=ORIENTED_EDGE('',*,*,#418,.F.);
#203=ORIENTED_EDGE('',*,*,#419,.F.);
#204=ORIENTED_EDGE('',*,*,#420,.F.);
#205=ORIENTED_EDGE('',*,*,#421,.F.);
#206=ORIENTED_EDGE('',*,*,#422,.F.);
#207=ORIENTED_EDGE('',*,*,#423,.F.);
#208=ORIENTED_EDGE('',*,*,#424,.F.);
#209=ORIENTED_EDGE('',*,*,#425,.F.);
#210=ORIENTED_EDGE('',*,*,#426,.F.);
#211=ORIENTED_EDGE('',*,*,#427,.F.);
#212=ORIENTED_EDGE('',*,*,#428,.F.);
#213=ORIENTED_EDGE('',*,*,#429,.F.);
#214=ORIENTED_EDGE('',*,*,#430,.F.);
#215=ORIENTED_EDGE('',*,*,#431,.F.);
#216=ORIENTED_EDGE('',*,*,#432,.F.);
#217=ORIENTED_EDGE('',*,*,#433,.F.);
#218=ORIENTED_EDGE('',*,*,#434,.T.);
#219=ORIENTED_EDGE('',*,*,#435,.F.);
#220=ORIENTED_EDGE('',*,*,#436,.F.);
#221=ORIENTED_EDGE('',*,*,#437,.F.);
#222=ORIENTED_EDGE('',*,*,#438,.F.);
#223=ORIENTED_EDGE('',*,*,#439,.F.);
#224=ORIENTED_EDGE('',*,*,#440,.T.);
#225=ORIENTED_EDGE('',*,*,#441,.F.);
#226=ORIENTED_EDGE('',*,*,#442,.F.);
#227=ORIENTED_EDGE('',*,*,#443,.F.);
#228=ORIENTED_EDGE('',*,*,#444,.F.);
#229=ORIENTED_EDGE('',*,*,#445,.F.);
#230=ORIENTED_EDGE('',*,*,#446,.F.);
#231=ORIENTED_EDGE('',*,*,#447,.F.);
#232=ORIENTED_EDGE('',*,*,#448,.F.);
#233=ORIENTED_EDGE('',*,*,#449,.F.);
#234=ORIENTED_EDGE('',*,*,#450,.T.);
#235=ORIENTED_EDGE('',*,*,#451,.F.);
#236=ORIENTED_EDGE('',*,*,#420,.T.);
#237=ORIENTED_EDGE('',*,*,#452,.T.);
#238=ORIENTED_EDGE('',*,*,#434,.F.);
#239=ORIENTED_EDGE('',*,*,#453,.F.);
#240=ORIENTED_EDGE('',*,*,#426,.T.);
#241=ORIENTED_EDGE('',*,*,#454,.T.);
#242=ORIENTED_EDGE('',*,*,#440,.F.);
#243=ORIENTED_EDGE('',*,*,#455,.T.);
#244=ORIENTED_EDGE('',*,*,#450,.F.);
#245=ORIENTED_EDGE('',*,*,#456,.F.);
#246=ORIENTED_EDGE('',*,*,#428,.T.);
#247=ORIENTED_EDGE('',*,*,#446,.T.);
#248=ORIENTED_EDGE('',*,*,#457,.T.);
#249=ORIENTED_EDGE('',*,*,#432,.T.);
#250=ORIENTED_EDGE('',*,*,#458,.T.);
#251=ORIENTED_EDGE('',*,*,#416,.T.);
#252=ORIENTED_EDGE('',*,*,#459,.T.);
#253=ORIENTED_EDGE('',*,*,#438,.T.);
#254=ORIENTED_EDGE('',*,*,#460,.F.);
#255=ORIENTED_EDGE('',*,*,#430,.T.);
#256=ORIENTED_EDGE('',*,*,#461,.T.);
#257=ORIENTED_EDGE('',*,*,#448,.T.);
#258=ORIENTED_EDGE('',*,*,#462,.F.);
#259=ORIENTED_EDGE('',*,*,#442,.T.);
#260=ORIENTED_EDGE('',*,*,#463,.T.);
#261=ORIENTED_EDGE('',*,*,#424,.T.);
#262=ORIENTED_EDGE('',*,*,#464,.T.);
#263=ORIENTED_EDGE('',*,*,#436,.T.);
#264=ORIENTED_EDGE('',*,*,#465,.T.);
#265=ORIENTED_EDGE('',*,*,#418,.T.);
#266=ORIENTED_EDGE('',*,*,#466,.T.);
#267=ORIENTED_EDGE('',*,*,#422,.T.);
#268=ORIENTED_EDGE('',*,*,#467,.T.);
#269=ORIENTED_EDGE('',*,*,#444,.T.);
#270=ORIENTED_EDGE('',*,*,#468,.F.);
#271=ORIENTED_EDGE('',*,*,#469,.T.);
#272=ORIENTED_EDGE('',*,*,#470,.F.);
#273=ORIENTED_EDGE('',*,*,#471,.T.);
#274=ORIENTED_EDGE('',*,*,#472,.T.);
#275=ORIENTED_EDGE('',*,*,#473,.T.);
#276=ORIENTED_EDGE('',*,*,#474,.T.);
#277=ORIENTED_EDGE('',*,*,#475,.F.);
#278=ORIENTED_EDGE('',*,*,#476,.F.);
#279=ORIENTED_EDGE('',*,*,#476,.T.);
#280=ORIENTED_EDGE('',*,*,#477,.T.);
#281=ORIENTED_EDGE('',*,*,#471,.F.);
#282=ORIENTED_EDGE('',*,*,#478,.T.);
#283=ORIENTED_EDGE('',*,*,#479,.T.);
#284=ORIENTED_EDGE('',*,*,#473,.F.);
#285=ORIENTED_EDGE('',*,*,#478,.F.);
#286=ORIENTED_EDGE('',*,*,#470,.T.);
#287=ORIENTED_EDGE('',*,*,#417,.T.);
#288=ORIENTED_EDGE('',*,*,#460,.T.);
#289=ORIENTED_EDGE('',*,*,#437,.T.);
#290=ORIENTED_EDGE('',*,*,#466,.F.);
#291=ORIENTED_EDGE('',*,*,#423,.T.);
#292=ORIENTED_EDGE('',*,*,#468,.T.);
#293=ORIENTED_EDGE('',*,*,#443,.T.);
#294=ORIENTED_EDGE('',*,*,#464,.F.);
#295=ORIENTED_EDGE('',*,*,#431,.T.);
#296=ORIENTED_EDGE('',*,*,#462,.T.);
#297=ORIENTED_EDGE('',*,*,#447,.T.);
#298=ORIENTED_EDGE('',*,*,#458,.F.);
#299=ORIENTED_EDGE('',*,*,#474,.F.);
#300=ORIENTED_EDGE('',*,*,#479,.F.);
#301=ORIENTED_EDGE('',*,*,#469,.F.);
#302=ORIENTED_EDGE('',*,*,#480,.F.);
#303=ORIENTED_EDGE('',*,*,#480,.T.);
#304=ORIENTED_EDGE('',*,*,#472,.F.);
#305=ORIENTED_EDGE('',*,*,#477,.F.);
#306=ORIENTED_EDGE('',*,*,#475,.T.);
#307=ORIENTED_EDGE('',*,*,#421,.T.);
#308=ORIENTED_EDGE('',*,*,#453,.T.);
#309=ORIENTED_EDGE('',*,*,#439,.T.);
#310=ORIENTED_EDGE('',*,*,#467,.F.);
#311=ORIENTED_EDGE('',*,*,#419,.T.);
#312=ORIENTED_EDGE('',*,*,#465,.F.);
#313=ORIENTED_EDGE('',*,*,#435,.T.);
#314=ORIENTED_EDGE('',*,*,#452,.F.);
#315=ORIENTED_EDGE('',*,*,#425,.T.);
#316=ORIENTED_EDGE('',*,*,#463,.F.);
#317=ORIENTED_EDGE('',*,*,#441,.T.);
#318=ORIENTED_EDGE('',*,*,#454,.F.);
#319=ORIENTED_EDGE('',*,*,#429,.T.);
#320=ORIENTED_EDGE('',*,*,#456,.T.);
#321=ORIENTED_EDGE('',*,*,#449,.T.);
#322=ORIENTED_EDGE('',*,*,#461,.F.);
#323=ORIENTED_EDGE('',*,*,#415,.T.);
#324=ORIENTED_EDGE('',*,*,#451,.T.);
#325=ORIENTED_EDGE('',*,*,#433,.T.);
#326=ORIENTED_EDGE('',*,*,#459,.F.);
#327=ORIENTED_EDGE('',*,*,#427,.T.);
#328=ORIENTED_EDGE('',*,*,#457,.F.);
#329=ORIENTED_EDGE('',*,*,#445,.T.);
#330=ORIENTED_EDGE('',*,*,#455,.F.);
#331=EDGE_CURVE('',#481,#482,#581,.T.);
#332=EDGE_CURVE('',#483,#481,#582,.T.);
#333=EDGE_CURVE('',#484,#483,#583,.T.);
#334=EDGE_CURVE('',#484,#485,#584,.T.);
#335=EDGE_CURVE('',#486,#485,#585,.T.);
#336=EDGE_CURVE('',#487,#486,#586,.T.);
#337=EDGE_CURVE('',#488,#487,#587,.T.);
#338=EDGE_CURVE('',#488,#489,#588,.T.);
#339=EDGE_CURVE('',#490,#489,#589,.T.);
#340=EDGE_CURVE('',#491,#490,#590,.T.);
#341=EDGE_CURVE('',#492,#491,#591,.T.);
#342=EDGE_CURVE('',#492,#493,#592,.T.);
#343=EDGE_CURVE('',#494,#493,#593,.T.);
#344=EDGE_CURVE('',#495,#494,#594,.T.);
#345=EDGE_CURVE('',#495,#496,#595,.T.);
#346=EDGE_CURVE('',#496,#482,#596,.T.);
#347=EDGE_CURVE('',#497,#498,#597,.T.);
#348=EDGE_CURVE('',#497,#499,#598,.T.);
#349=EDGE_CURVE('',#500,#499,#599,.T.);
#350=EDGE_CURVE('',#501,#500,#600,.T.);
#351=EDGE_CURVE('',#501,#502,#601,.T.);
#352=EDGE_CURVE('',#502,#503,#602,.T.);
#353=EDGE_CURVE('',#504,#503,#603,.T.);
#354=EDGE_CURVE('',#505,#504,#604,.T.);
#355=EDGE_CURVE('',#506,#505,#605,.T.);
#356=EDGE_CURVE('',#506,#507,#606,.T.);
#357=EDGE_CURVE('',#508,#507,#607,.T.);
#358=EDGE_CURVE('',#509,#508,#608,.T.);
#359=EDGE_CURVE('',#510,#509,#609,.T.);
#360=EDGE_CURVE('',#510,#511,#610,.T.);
#361=EDGE_CURVE('',#512,#511,#611,.T.);
#362=EDGE_CURVE('',#498,#512,#612,.T.);
#363=EDGE_CURVE('',#513,#514,#613,.T.);
#364=EDGE_CURVE('',#514,#515,#614,.T.);
#365=EDGE_CURVE('',#516,#515,#615,.T.);
#366=EDGE_CURVE('',#516,#513,#616,.T.);
#367=EDGE_CURVE('',#515,#517,#617,.T.);
#368=EDGE_CURVE('',#518,#517,#618,.T.);
#369=EDGE_CURVE('',#518,#516,#619,.T.);
#370=EDGE_CURVE('',#517,#519,#620,.T.);
#371=EDGE_CURVE('',#520,#519,#621,.T.);
#372=EDGE_CURVE('',#520,#518,#622,.T.);
#373=EDGE_CURVE('',#521,#522,#623,.T.);
#374=EDGE_CURVE('',#522,#523,#624,.T.);
#375=EDGE_CURVE('',#524,#523,#625,.T.);
#376=EDGE_CURVE('',#524,#521,#626,.T.);
#377=EDGE_CURVE('',#523,#525,#627,.T.);
#378=EDGE_CURVE('',#526,#525,#628,.T.);
#379=EDGE_CURVE('',#526,#524,#629,.T.);
#380=EDGE_CURVE('',#525,#527,#630,.T.);
#381=EDGE_CURVE('',#528,#527,#631,.T.);
#382=EDGE_CURVE('',#528,#526,#632,.T.);
#383=EDGE_CURVE('',#529,#530,#633,.T.);
#384=EDGE_CURVE('',#530,#531,#634,.T.);
#385=EDGE_CURVE('',#532,#531,#635,.T.);
#386=EDGE_CURVE('',#532,#529,#636,.T.);
#387=EDGE_CURVE('',#531,#533,#637,.T.);
#388=EDGE_CURVE('',#534,#533,#638,.T.);
#389=EDGE_CURVE('',#534,#532,#639,.T.);
#390=EDGE_CURVE('',#533,#535,#640,.T.);
#391=EDGE_CURVE('',#536,#535,#641,.T.);
#392=EDGE_CURVE('',#536,#534,#642,.T.);
#393=EDGE_CURVE('',#519,#514,#643,.T.);
#394=EDGE_CURVE('',#513,#520,#644,.T.);
#395=EDGE_CURVE('',#527,#522,#645,.T.);
#396=EDGE_CURVE('',#521,#528,#646,.T.);
#397=EDGE_CURVE('',#535,#530,#647,.T.);
#398=EDGE_CURVE('',#529,#536,#648,.T.);
#399=EDGE_CURVE('',#503,#492,#649,.T.);
#400=EDGE_CURVE('',#493,#502,#650,.T.);
#401=EDGE_CURVE('',#482,#497,#651,.T.);
#402=EDGE_CURVE('',#499,#496,#652,.T.);
#403=EDGE_CURVE('',#511,#484,#653,.T.);
#404=EDGE_CURVE('',#485,#510,#654,.T.);
#405=EDGE_CURVE('',#507,#488,#655,.T.);
#406=EDGE_CURVE('',#489,#506,#656,.T.);
#407=EDGE_CURVE('',#494,#501,#657,.T.);
#408=EDGE_CURVE('',#500,#495,#658,.T.);
#409=EDGE_CURVE('',#505,#490,#659,.T.);
#410=EDGE_CURVE('',#504,#491,#660,.T.);
#411=EDGE_CURVE('',#509,#486,#661,.T.);
#412=EDGE_CURVE('',#508,#487,#662,.T.);
#413=EDGE_CURVE('',#498,#481,#663,.T.);
#414=EDGE_CURVE('',#512,#483,#664,.T.);
#415=EDGE_CURVE('',#537,#538,#665,.T.);
#416=EDGE_CURVE('',#539,#537,#666,.T.);
#417=EDGE_CURVE('',#540,#539,#667,.T.);
#418=EDGE_CURVE('',#541,#540,#668,.T.);
#419=EDGE_CURVE('',#542,#541,#669,.T.);
#420=EDGE_CURVE('',#538,#542,#670,.T.);
#421=EDGE_CURVE('',#543,#544,#671,.T.);
#422=EDGE_CURVE('',#545,#543,#672,.T.);
#423=EDGE_CURVE('',#546,#545,#673,.T.);
#424=EDGE_CURVE('',#547,#546,#674,.T.);
#425=EDGE_CURVE('',#548,#547,#675,.T.);
#426=EDGE_CURVE('',#544,#548,#676,.T.);
#427=EDGE_CURVE('',#549,#550,#677,.T.);
#428=EDGE_CURVE('',#551,#549,#678,.T.);
#429=EDGE_CURVE('',#552,#551,#679,.T.);
#430=EDGE_CURVE('',#553,#552,#680,.T.);
#431=EDGE_CURVE('',#554,#553,#681,.T.);
#432=EDGE_CURVE('',#550,#554,#682,.T.);
#433=EDGE_CURVE('',#555,#556,#683,.T.);
#434=EDGE_CURVE('',#555,#557,#684,.T.);
#435=EDGE_CURVE('',#558,#557,#685,.T.);
#436=EDGE_CURVE('',#559,#558,#686,.T.);
#437=EDGE_CURVE('',#560,#559,#687,.T.);
#438=EDGE_CURVE('',#556,#560,#688,.T.);
#439=EDGE_CURVE('',#561,#562,#689,.T.);
#440=EDGE_CURVE('',#561,#563,#690,.T.);
#441=EDGE_CURVE('',#564,#563,#691,.T.);
#442=EDGE_CURVE('',#565,#564,#692,.T.);
#443=EDGE_CURVE('',#566,#565,#693,.T.);
#444=EDGE_CURVE('',#562,#566,#694,.T.);
#445=EDGE_CURVE('',#567,#568,#695,.T.);
#446=EDGE_CURVE('',#569,#567,#696,.T.);
#447=EDGE_CURVE('',#570,#569,#697,.T.);
#448=EDGE_CURVE('',#571,#570,#698,.T.);
#449=EDGE_CURVE('',#572,#571,#699,.T.);
#450=EDGE_CURVE('',#572,#568,#700,.T.);
#451=EDGE_CURVE('',#538,#555,#701,.T.);
#452=EDGE_CURVE('',#542,#557,#702,.T.);
#453=EDGE_CURVE('',#544,#561,#703,.T.);
#454=EDGE_CURVE('',#548,#563,#704,.T.);
#455=EDGE_CURVE('',#549,#568,#705,.T.);
#456=EDGE_CURVE('',#551,#572,#706,.T.);
#457=EDGE_CURVE('',#567,#550,#707,.T.);
#458=EDGE_CURVE('',#554,#569,#708,.T.);
#459=EDGE_CURVE('',#537,#556,#709,.T.);
#460=EDGE_CURVE('',#539,#560,#710,.T.);
#461=EDGE_CURVE('',#552,#571,#711,.T.);
#462=EDGE_CURVE('',#553,#570,#712,.T.);
#463=EDGE_CURVE('',#564,#547,#713,.T.);
#464=EDGE_CURVE('',#546,#565,#714,.T.);
#465=EDGE_CURVE('',#558,#541,#715,.T.);
#466=EDGE_CURVE('',#540,#559,#716,.T.);
#467=EDGE_CURVE('',#543,#562,#717,.T.);
#468=EDGE_CURVE('',#545,#566,#718,.T.);
#469=EDGE_CURVE('',#573,#574,#719,.T.);
#470=EDGE_CURVE('',#575,#574,#720,.T.);
#471=EDGE_CURVE('',#575,#576,#721,.T.);
#472=EDGE_CURVE('',#576,#573,#722,.T.);
#473=EDGE_CURVE('',#577,#578,#723,.T.);
#474=EDGE_CURVE('',#578,#579,#724,.T.);
#475=EDGE_CURVE('',#580,#579,#725,.T.);
#476=EDGE_CURVE('',#577,#580,#726,.T.);
#477=EDGE_CURVE('',#580,#576,#727,.T.);
#478=EDGE_CURVE('',#575,#577,#728,.T.);
#479=EDGE_CURVE('',#574,#578,#729,.T.);
#480=EDGE_CURVE('',#579,#573,#730,.T.);
#481=VERTEX_POINT('',#1485);
#482=VERTEX_POINT('',#1486);
#483=VERTEX_POINT('',#1488);
#484=VERTEX_POINT('',#1490);
#485=VERTEX_POINT('',#1492);
#486=VERTEX_POINT('',#1494);
#487=VERTEX_POINT('',#1496);
#488=VERTEX_POINT('',#1498);
#489=VERTEX_POINT('',#1500);
#490=VERTEX_POINT('',#1502);
#491=VERTEX_POINT('',#1504);
#492=VERTEX_POINT('',#1506);
#493=VERTEX_POINT('',#1508);
#494=VERTEX_POINT('',#1510);
#495=VERTEX_POINT('',#1512);
#496=VERTEX_POINT('',#1514);
#497=VERTEX_POINT('',#1518);
#498=VERTEX_POINT('',#1519);
#499=VERTEX_POINT('',#1521);
#500=VERTEX_POINT('',#1523);
#501=VERTEX_POINT('',#1525);
#502=VERTEX_POINT('',#1527);
#503=VERTEX_POINT('',#1529);
#504=VERTEX_POINT('',#1531);
#505=VERTEX_POINT('',#1533);
#506=VERTEX_POINT('',#1535);
#507=VERTEX_POINT('',#1537);
#508=VERTEX_POINT('',#1539);
#509=VERTEX_POINT('',#1541);
#510=VERTEX_POINT('',#1543);
#511=VERTEX_POINT('',#1545);
#512=VERTEX_POINT('',#1547);
#513=VERTEX_POINT('',#1551);
#514=VERTEX_POINT('',#1552);
#515=VERTEX_POINT('',#1554);
#516=VERTEX_POINT('',#1556);
#517=VERTEX_POINT('',#1560);
#518=VERTEX_POINT('',#1562);
#519=VERTEX_POINT('',#1566);
#520=VERTEX_POINT('',#1568);
#521=VERTEX_POINT('',#1572);
#522=VERTEX_POINT('',#1573);
#523=VERTEX_POINT('',#1575);
#524=VERTEX_POINT('',#1577);
#525=VERTEX_POINT('',#1581);
#526=VERTEX_POINT('',#1583);
#527=VERTEX_POINT('',#1587);
#528=VERTEX_POINT('',#1589);
#529=VERTEX_POINT('',#1593);
#530=VERTEX_POINT('',#1594);
#531=VERTEX_POINT('',#1596);
#532=VERTEX_POINT('',#1598);
#533=VERTEX_POINT('',#1602);
#534=VERTEX_POINT('',#1604);
#535=VERTEX_POINT('',#1608);
#536=VERTEX_POINT('',#1610);
#537=VERTEX_POINT('',#1656);
#538=VERTEX_POINT('',#1657);
#539=VERTEX_POINT('',#1659);
#540=VERTEX_POINT('',#1661);
#541=VERTEX_POINT('',#1663);
#542=VERTEX_POINT('',#1665);
#543=VERTEX_POINT('',#1669);
#544=VERTEX_POINT('',#1670);
#545=VERTEX_POINT('',#1672);
#546=VERTEX_POINT('',#1674);
#547=VERTEX_POINT('',#1676);
#548=VERTEX_POINT('',#1678);
#549=VERTEX_POINT('',#1682);
#550=VERTEX_POINT('',#1683);
#551=VERTEX_POINT('',#1685);
#552=VERTEX_POINT('',#1687);
#553=VERTEX_POINT('',#1689);
#554=VERTEX_POINT('',#1691);
#555=VERTEX_POINT('',#1695);
#556=VERTEX_POINT('',#1696);
#557=VERTEX_POINT('',#1698);
#558=VERTEX_POINT('',#1700);
#559=VERTEX_POINT('',#1702);
#560=VERTEX_POINT('',#1704);
#561=VERTEX_POINT('',#1708);
#562=VERTEX_POINT('',#1709);
#563=VERTEX_POINT('',#1711);
#564=VERTEX_POINT('',#1713);
#565=VERTEX_POINT('',#1715);
#566=VERTEX_POINT('',#1717);
#567=VERTEX_POINT('',#1721);
#568=VERTEX_POINT('',#1722);
#569=VERTEX_POINT('',#1724);
#570=VERTEX_POINT('',#1726);
#571=VERTEX_POINT('',#1728);
#572=VERTEX_POINT('',#1730);
#573=VERTEX_POINT('',#1761);
#574=VERTEX_POINT('',#1762);
#575=VERTEX_POINT('',#1764);
#576=VERTEX_POINT('',#1766);
#577=VERTEX_POINT('',#1770);
#578=VERTEX_POINT('',#1771);
#579=VERTEX_POINT('',#1773);
#580=VERTEX_POINT('',#1775);
#581=LINE('',#1484,#731);
#582=LINE('',#1487,#732);
#583=LINE('',#1489,#733);
#584=LINE('',#1491,#734);
#585=LINE('',#1493,#735);
#586=LINE('',#1495,#736);
#587=LINE('',#1497,#737);
#588=LINE('',#1499,#738);
#589=LINE('',#1501,#739);
#590=LINE('',#1503,#740);
#591=LINE('',#1505,#741);
#592=LINE('',#1507,#742);
#593=LINE('',#1509,#743);
#594=LINE('',#1511,#744);
#595=LINE('',#1513,#745);
#596=LINE('',#1515,#746);
#597=LINE('',#1517,#747);
#598=LINE('',#1520,#748);
#599=LINE('',#1522,#749);
#600=LINE('',#1524,#750);
#601=LINE('',#1526,#751);
#602=LINE('',#1528,#752);
#603=LINE('',#1530,#753);
#604=LINE('',#1532,#754);
#605=LINE('',#1534,#755);
#606=LINE('',#1536,#756);
#607=LINE('',#1538,#757);
#608=LINE('',#1540,#758);
#609=LINE('',#1542,#759);
#610=LINE('',#1544,#760);
#611=LINE('',#1546,#761);
#612=LINE('',#1548,#762);
#613=LINE('',#1550,#763);
#614=LINE('',#1553,#764);
#615=LINE('',#1555,#765);
#616=LINE('',#1557,#766);
#617=LINE('',#1559,#767);
#618=LINE('',#1561,#768);
#619=LINE('',#1563,#769);
#620=LINE('',#1565,#770);
#621=LINE('',#1567,#771);
#622=LINE('',#1569,#772);
#623=LINE('',#1571,#773);
#624=LINE('',#1574,#774);
#625=LINE('',#1576,#775);
#626=LINE('',#1578,#776);
#627=LINE('',#1580,#777);
#628=LINE('',#1582,#778);
#629=LINE('',#1584,#779);
#630=LINE('',#1586,#780);
#631=LINE('',#1588,#781);
#632=LINE('',#1590,#782);
#633=LINE('',#1592,#783);
#634=LINE('',#1595,#784);
#635=LINE('',#1597,#785);
#636=LINE('',#1599,#786);
#637=LINE('',#1601,#787);
#638=LINE('',#1603,#788);
#639=LINE('',#1605,#789);
#640=LINE('',#1607,#790);
#641=LINE('',#1609,#791);
#642=LINE('',#1611,#792);
#643=LINE('',#1613,#793);
#644=LINE('',#1614,#794);
#645=LINE('',#1616,#795);
#646=LINE('',#1617,#796);
#647=LINE('',#1619,#797);
#648=LINE('',#1620,#798);
#649=LINE('',#1622,#799);
#650=LINE('',#1623,#800);
#651=LINE('',#1625,#801);
#652=LINE('',#1626,#802);
#653=LINE('',#1628,#803);
#654=LINE('',#1629,#804);
#655=LINE('',#1631,#805);
#656=LINE('',#1632,#806);
#657=LINE('',#1634,#807);
#658=LINE('',#1636,#808);
#659=LINE('',#1639,#809);
#660=LINE('',#1641,#810);
#661=LINE('',#1644,#811);
#662=LINE('',#1646,#812);
#663=LINE('',#1649,#813);
#664=LINE('',#1650,#814);
#665=LINE('',#1655,#815);
#666=LINE('',#1658,#816);
#667=LINE('',#1660,#817);
#668=LINE('',#1662,#818);
#669=LINE('',#1664,#819);
#670=LINE('',#1666,#820);
#671=LINE('',#1668,#821);
#672=LINE('',#1671,#822);
#673=LINE('',#1673,#823);
#674=LINE('',#1675,#824);
#675=LINE('',#1677,#825);
#676=LINE('',#1679,#826);
#677=LINE('',#1681,#827);
#678=LINE('',#1684,#828);
#679=LINE('',#1686,#829);
#680=LINE('',#1688,#830);
#681=LINE('',#1690,#831);
#682=LINE('',#1692,#832);
#683=LINE('',#1694,#833);
#684=LINE('',#1697,#834);
#685=LINE('',#1699,#835);
#686=LINE('',#1701,#836);
#687=LINE('',#1703,#837);
#688=LINE('',#1705,#838);
#689=LINE('',#1707,#839);
#690=LINE('',#1710,#840);
#691=LINE('',#1712,#841);
#692=LINE('',#1714,#842);
#693=LINE('',#1716,#843);
#694=LINE('',#1718,#844);
#695=LINE('',#1720,#845);
#696=LINE('',#1723,#846);
#697=LINE('',#1725,#847);
#698=LINE('',#1727,#848);
#699=LINE('',#1729,#849);
#700=LINE('',#1731,#850);
#701=LINE('',#1733,#851);
#702=LINE('',#1734,#852);
#703=LINE('',#1736,#853);
#704=LINE('',#1737,#854);
#705=LINE('',#1739,#855);
#706=LINE('',#1740,#856);
#707=LINE('',#1742,#857);
#708=LINE('',#1743,#858);
#709=LINE('',#1745,#859);
#710=LINE('',#1746,#860);
#711=LINE('',#1748,#861);
#712=LINE('',#1749,#862);
#713=LINE('',#1751,#863);
#714=LINE('',#1752,#864);
#715=LINE('',#1754,#865);
#716=LINE('',#1755,#866);
#717=LINE('',#1757,#867);
#718=LINE('',#1758,#868);
#719=LINE('',#1760,#869);
#720=LINE('',#1763,#870);
#721=LINE('',#1765,#871);
#722=LINE('',#1767,#872);
#723=LINE('',#1769,#873);
#724=LINE('',#1772,#874);
#725=LINE('',#1774,#875);
#726=LINE('',#1776,#876);
#727=LINE('',#1778,#877);
#728=LINE('',#1779,#878);
#729=LINE('',#1781,#879);
#730=LINE('',#1783,#880);
#731=VECTOR('',#1216,39.3700787401575);
#732=VECTOR('',#1217,39.3700787401575);
#733=VECTOR('',#1218,39.3700787401575);
#734=VECTOR('',#1219,39.3700787401575);
#735=VECTOR('',#1220,39.3700787401575);
#736=VECTOR('',#1221,39.3700787401575);
#737=VECTOR('',#1222,39.3700787401575);
#738=VECTOR('',#1223,39.3700787401575);
#739=VECTOR('',#1224,39.3700787401575);
#740=VECTOR('',#1225,39.3700787401575);
#741=VECTOR('',#1226,39.3700787401575);
#742=VECTOR('',#1227,39.3700787401575);
#743=VECTOR('',#1228,39.3700787401575);
#744=VECTOR('',#1229,39.3700787401575);
#745=VECTOR('',#1230,39.3700787401575);
#746=VECTOR('',#1231,39.3700787401575);
#747=VECTOR('',#1234,39.3700787401575);
#748=VECTOR('',#1235,39.3700787401575);
#749=VECTOR('',#1236,39.3700787401575);
#750=VECTOR('',#1237,39.3700787401575);
#751=VECTOR('',#1238,39.3700787401575);
#752=VECTOR('',#1239,39.3700787401575);
#753=VECTOR('',#1240,39.3700787401575);
#754=VECTOR('',#1241,39.3700787401575);
#755=VECTOR('',#1242,39.3700787401575);
#756=VECTOR('',#1243,39.3700787401575);
#757=VECTOR('',#1244,39.3700787401575);
#758=VECTOR('',#1245,39.3700787401575);
#759=VECTOR('',#1246,39.3700787401575);
#760=VECTOR('',#1247,39.3700787401575);
#761=VECTOR('',#1248,39.3700787401575);
#762=VECTOR('',#1249,39.3700787401575);
#763=VECTOR('',#1252,39.3700787401575);
#764=VECTOR('',#1253,39.3700787401575);
#765=VECTOR('',#1254,39.3700787401575);
#766=VECTOR('',#1255,39.3700787401575);
#767=VECTOR('',#1258,39.3700787401575);
#768=VECTOR('',#1259,39.3700787401575);
#769=VECTOR('',#1260,39.3700787401575);
#770=VECTOR('',#1263,39.3700787401575);
#771=VECTOR('',#1264,39.3700787401575);
#772=VECTOR('',#1265,39.3700787401575);
#773=VECTOR('',#1268,39.3700787401575);
#774=VECTOR('',#1269,39.3700787401575);
#775=VECTOR('',#1270,39.3700787401575);
#776=VECTOR('',#1271,39.3700787401575);
#777=VECTOR('',#1274,39.3700787401575);
#778=VECTOR('',#1275,39.3700787401575);
#779=VECTOR('',#1276,39.3700787401575);
#780=VECTOR('',#1279,39.3700787401575);
#781=VECTOR('',#1280,39.3700787401575);
#782=VECTOR('',#1281,39.3700787401575);
#783=VECTOR('',#1284,39.3700787401575);
#784=VECTOR('',#1285,39.3700787401575);
#785=VECTOR('',#1286,39.3700787401575);
#786=VECTOR('',#1287,39.3700787401575);
#787=VECTOR('',#1290,39.3700787401575);
#788=VECTOR('',#1291,39.3700787401575);
#789=VECTOR('',#1292,39.3700787401575);
#790=VECTOR('',#1295,39.3700787401575);
#791=VECTOR('',#1296,39.3700787401575);
#792=VECTOR('',#1297,39.3700787401575);
#793=VECTOR('',#1300,39.3700787401575);
#794=VECTOR('',#1301,39.3700787401575);
#795=VECTOR('',#1304,39.3700787401575);
#796=VECTOR('',#1305,39.3700787401575);
#797=VECTOR('',#1308,39.3700787401575);
#798=VECTOR('',#1309,39.3700787401575);
#799=VECTOR('',#1312,39.3700787401575);
#800=VECTOR('',#1313,39.3700787401575);
#801=VECTOR('',#1316,39.3700787401575);
#802=VECTOR('',#1317,39.3700787401575);
#803=VECTOR('',#1320,39.3700787401575);
#804=VECTOR('',#1321,39.3700787401575);
#805=VECTOR('',#1324,39.3700787401575);
#806=VECTOR('',#1325,39.3700787401575);
#807=VECTOR('',#1328,39.3700787401575);
#808=VECTOR('',#1331,39.3700787401575);
#809=VECTOR('',#1336,39.3700787401575);
#810=VECTOR('',#1339,39.3700787401575);
#811=VECTOR('',#1344,39.3700787401575);
#812=VECTOR('',#1347,39.3700787401575);
#813=VECTOR('',#1352,39.3700787401575);
#814=VECTOR('',#1353,39.3700787401575);
#815=VECTOR('',#1362,39.3700787401575);
#816=VECTOR('',#1363,39.3700787401575);
#817=VECTOR('',#1364,39.3700787401575);
#818=VECTOR('',#1365,39.3700787401575);
#819=VECTOR('',#1366,39.3700787401575);
#820=VECTOR('',#1367,39.3700787401575);
#821=VECTOR('',#1370,39.3700787401575);
#822=VECTOR('',#1371,39.3700787401575);
#823=VECTOR('',#1372,39.3700787401575);
#824=VECTOR('',#1373,39.3700787401575);
#825=VECTOR('',#1374,39.3700787401575);
#826=VECTOR('',#1375,39.3700787401575);
#827=VECTOR('',#1378,39.3700787401575);
#828=VECTOR('',#1379,39.3700787401575);
#829=VECTOR('',#1380,39.3700787401575);
#830=VECTOR('',#1381,39.3700787401575);
#831=VECTOR('',#1382,39.3700787401575);
#832=VECTOR('',#1383,39.3700787401575);
#833=VECTOR('',#1386,39.3700787401575);
#834=VECTOR('',#1387,39.3700787401575);
#835=VECTOR('',#1388,39.3700787401575);
#836=VECTOR('',#1389,39.3700787401575);
#837=VECTOR('',#1390,39.3700787401575);
#838=VECTOR('',#1391,39.3700787401575);
#839=VECTOR('',#1394,39.3700787401575);
#840=VECTOR('',#1395,39.3700787401575);
#841=VECTOR('',#1396,39.3700787401575);
#842=VECTOR('',#1397,39.3700787401575);
#843=VECTOR('',#1398,39.3700787401575);
#844=VECTOR('',#1399,39.3700787401575);
#845=VECTOR('',#1402,39.3700787401575);
#846=VECTOR('',#1403,39.3700787401575);
#847=VECTOR('',#1404,39.3700787401575);
#848=VECTOR('',#1405,39.3700787401575);
#849=VECTOR('',#1406,39.3700787401575);
#850=VECTOR('',#1407,39.3700787401575);
#851=VECTOR('',#1410,39.3700787401575);
#852=VECTOR('',#1411,39.3700787401575);
#853=VECTOR('',#1414,39.3700787401575);
#854=VECTOR('',#1415,39.3700787401575);
#855=VECTOR('',#1418,39.3700787401575);
#856=VECTOR('',#1419,39.3700787401575);
#857=VECTOR('',#1422,39.3700787401575);
#858=VECTOR('',#1423,39.3700787401575);
#859=VECTOR('',#1426,39.3700787401575);
#860=VECTOR('',#1427,39.3700787401575);
#861=VECTOR('',#1430,39.3700787401575);
#862=VECTOR('',#1431,39.3700787401575);
#863=VECTOR('',#1434,39.3700787401575);
#864=VECTOR('',#1435,39.3700787401575);
#865=VECTOR('',#1438,39.3700787401575);
#866=VECTOR('',#1439,39.3700787401575);
#867=VECTOR('',#1442,39.3700787401575);
#868=VECTOR('',#1443,39.3700787401575);
#869=VECTOR('',#1446,39.3700787401575);
#870=VECTOR('',#1447,39.3700787401575);
#871=VECTOR('',#1448,39.3700787401575);
#872=VECTOR('',#1449,39.3700787401575);
#873=VECTOR('',#1452,39.3700787401575);
#874=VECTOR('',#1453,39.3700787401575);
#875=VECTOR('',#1454,39.3700787401575);
#876=VECTOR('',#1455,39.3700787401575);
#877=VECTOR('',#1458,39.3700787401575);
#878=VECTOR('',#1459,39.3700787401575);
#879=VECTOR('',#1462,39.3700787401575);
#880=VECTOR('',#1465,39.3700787401575);
#881=EDGE_LOOP('',(#31,#32,#33,#34,#35,#36,#37,#38,#39,#40,#41,#42,#43,
#44,#45,#46));
#882=EDGE_LOOP('',(#47,#48,#49,#50,#51,#52,#53,#54,#55,#56,#57,#58,#59,
#60,#61,#62));
#883=EDGE_LOOP('',(#63,#64,#65,#66));
#884=EDGE_LOOP('',(#67,#68,#69,#70));
#885=EDGE_LOOP('',(#71,#72,#73,#74));
#886=EDGE_LOOP('',(#75,#76,#77,#78));
#887=EDGE_LOOP('',(#79,#80,#81,#82));
#888=EDGE_LOOP('',(#83,#84,#85,#86));
#889=EDGE_LOOP('',(#87,#88,#89,#90));
#890=EDGE_LOOP('',(#91,#92,#93,#94));
#891=EDGE_LOOP('',(#95,#96,#97,#98));
#892=EDGE_LOOP('',(#99,#100,#101,#102));
#893=EDGE_LOOP('',(#103,#104,#105,#106));
#894=EDGE_LOOP('',(#107,#108,#109,#110));
#895=EDGE_LOOP('',(#111,#112,#113,#114));
#896=EDGE_LOOP('',(#115,#116,#117,#118));
#897=EDGE_LOOP('',(#119,#120,#121,#122));
#898=EDGE_LOOP('',(#123,#124,#125,#126));
#899=EDGE_LOOP('',(#127,#128,#129,#130));
#900=EDGE_LOOP('',(#131,#132,#133,#134));
#901=EDGE_LOOP('',(#135,#136,#137,#138));
#902=EDGE_LOOP('',(#139,#140,#141,#142));
#903=EDGE_LOOP('',(#143,#144,#145,#146));
#904=EDGE_LOOP('',(#147,#148,#149,#150));
#905=EDGE_LOOP('',(#151,#152,#153,#154));
#906=EDGE_LOOP('',(#155,#156,#157,#158));
#907=EDGE_LOOP('',(#159,#160,#161,#162));
#908=EDGE_LOOP('',(#163,#164,#165,#166));
#909=EDGE_LOOP('',(#167,#168,#169,#170));
#910=EDGE_LOOP('',(#171,#172,#173,#174));
#911=EDGE_LOOP('',(#175,#176,#177,#178));
#912=EDGE_LOOP('',(#179,#180,#181,#182));
#913=EDGE_LOOP('',(#183,#184,#185,#186));
#914=EDGE_LOOP('',(#187,#188,#189,#190));
#915=EDGE_LOOP('',(#191,#192,#193,#194));
#916=EDGE_LOOP('',(#195,#196,#197,#198));
#917=EDGE_LOOP('',(#199,#200,#201,#202,#203,#204));
#918=EDGE_LOOP('',(#205,#206,#207,#208,#209,#210));
#919=EDGE_LOOP('',(#211,#212,#213,#214,#215,#216));
#920=EDGE_LOOP('',(#217,#218,#219,#220,#221,#222));
#921=EDGE_LOOP('',(#223,#224,#225,#226,#227,#228));
#922=EDGE_LOOP('',(#229,#230,#231,#232,#233,#234));
#923=EDGE_LOOP('',(#235,#236,#237,#238));
#924=EDGE_LOOP('',(#239,#240,#241,#242));
#925=EDGE_LOOP('',(#243,#244,#245,#246));
#926=EDGE_LOOP('',(#247,#248,#249,#250));
#927=EDGE_LOOP('',(#251,#252,#253,#254));
#928=EDGE_LOOP('',(#255,#256,#257,#258));
#929=EDGE_LOOP('',(#259,#260,#261,#262));
#930=EDGE_LOOP('',(#263,#264,#265,#266));
#931=EDGE_LOOP('',(#267,#268,#269,#270));
#932=EDGE_LOOP('',(#271,#272,#273,#274));
#933=EDGE_LOOP('',(#275,#276,#277,#278));
#934=EDGE_LOOP('',(#279,#280,#281,#282));
#935=EDGE_LOOP('',(#283,#284,#285,#286));
#936=EDGE_LOOP('',(#287,#288,#289,#290));
#937=EDGE_LOOP('',(#291,#292,#293,#294));
#938=EDGE_LOOP('',(#295,#296,#297,#298));
#939=EDGE_LOOP('',(#299,#300,#301,#302));
#940=EDGE_LOOP('',(#303,#304,#305,#306));
#941=EDGE_LOOP('',(#307,#308,#309,#310));
#942=EDGE_LOOP('',(#311,#312,#313,#314));
#943=EDGE_LOOP('',(#315,#316,#317,#318));
#944=EDGE_LOOP('',(#319,#320,#321,#322));
#945=EDGE_LOOP('',(#323,#324,#325,#326));
#946=EDGE_LOOP('',(#327,#328,#329,#330));
#947=FACE_BOUND('',#881,.T.);
#948=FACE_BOUND('',#882,.T.);
#949=FACE_BOUND('',#883,.T.);
#950=FACE_BOUND('',#884,.T.);
#951=FACE_BOUND('',#885,.T.);
#952=FACE_BOUND('',#886,.T.);
#953=FACE_BOUND('',#887,.T.);
#954=FACE_BOUND('',#888,.T.);
#955=FACE_BOUND('',#889,.T.);
#956=FACE_BOUND('',#890,.T.);
#957=FACE_BOUND('',#891,.T.);
#958=FACE_BOUND('',#892,.T.);
#959=FACE_BOUND('',#893,.T.);
#960=FACE_BOUND('',#894,.T.);
#961=FACE_BOUND('',#895,.T.);
#962=FACE_BOUND('',#896,.T.);
#963=FACE_BOUND('',#897,.T.);
#964=FACE_BOUND('',#898,.T.);
#965=FACE_BOUND('',#899,.T.);
#966=FACE_BOUND('',#900,.T.);
#967=FACE_BOUND('',#901,.T.);
#968=FACE_BOUND('',#902,.T.);
#969=FACE_BOUND('',#903,.T.);
#970=FACE_BOUND('',#904,.T.);
#971=FACE_BOUND('',#905,.T.);
#972=FACE_BOUND('',#906,.T.);
#973=FACE_BOUND('',#907,.T.);
#974=FACE_BOUND('',#908,.T.);
#975=FACE_BOUND('',#909,.T.);
#976=FACE_BOUND('',#910,.T.);
#977=FACE_BOUND('',#911,.T.);
#978=FACE_BOUND('',#912,.T.);
#979=FACE_BOUND('',#913,.T.);
#980=FACE_BOUND('',#914,.T.);
#981=FACE_BOUND('',#915,.T.);
#982=FACE_BOUND('',#916,.T.);
#983=FACE_BOUND('',#917,.T.);
#984=FACE_BOUND('',#918,.T.);
#985=FACE_BOUND('',#919,.T.);
#986=FACE_BOUND('',#920,.T.);
#987=FACE_BOUND('',#921,.T.);
#988=FACE_BOUND('',#922,.T.);
#989=FACE_BOUND('',#923,.T.);
#990=FACE_BOUND('',#924,.T.);
#991=FACE_BOUND('',#925,.T.);
#992=FACE_BOUND('',#926,.T.);
#993=FACE_BOUND('',#927,.T.);
#994=FACE_BOUND('',#928,.T.);
#995=FACE_BOUND('',#929,.T.);
#996=FACE_BOUND('',#930,.T.);
#997=FACE_BOUND('',#931,.T.);
#998=FACE_BOUND('',#932,.T.);
#999=FACE_BOUND('',#933,.T.);
#1000=FACE_BOUND('',#934,.T.);
#1001=FACE_BOUND('',#935,.T.);
#1002=FACE_BOUND('',#936,.T.);
#1003=FACE_BOUND('',#937,.T.);
#1004=FACE_BOUND('',#938,.T.);
#1005=FACE_BOUND('',#939,.T.);
#1006=FACE_BOUND('',#940,.T.);
#1007=FACE_BOUND('',#941,.T.);
#1008=FACE_BOUND('',#942,.T.);
#1009=FACE_BOUND('',#943,.T.);
#1010=FACE_BOUND('',#944,.T.);
#1011=FACE_BOUND('',#945,.T.);
#1012=FACE_BOUND('',#946,.T.);
#1013=PLANE('',#1153);
#1014=PLANE('',#1154);
#1015=PLANE('',#1155);
#1016=PLANE('',#1156);
#1017=PLANE('',#1157);
#1018=PLANE('',#1158);
#1019=PLANE('',#1159);
#1020=PLANE('',#1160);
#1021=PLANE('',#1161);
#1022=PLANE('',#1162);
#1023=PLANE('',#1163);
#1024=PLANE('',#1164);
#1025=PLANE('',#1165);
#1026=PLANE('',#1166);
#1027=PLANE('',#1167);
#1028=PLANE('',#1168);
#1029=PLANE('',#1169);
#1030=PLANE('',#1170);
#1031=PLANE('',#1171);
#1032=PLANE('',#1172);
#1033=PLANE('',#1173);
#1034=PLANE('',#1174);
#1035=PLANE('',#1175);
#1036=PLANE('',#1176);
#1037=PLANE('',#1177);
#1038=PLANE('',#1178);
#1039=PLANE('',#1179);
#1040=PLANE('',#1180);
#1041=PLANE('',#1181);
#1042=PLANE('',#1182);
#1043=PLANE('',#1184);
#1044=PLANE('',#1185);
#1045=PLANE('',#1186);
#1046=PLANE('',#1187);
#1047=PLANE('',#1188);
#1048=PLANE('',#1189);
#1049=PLANE('',#1190);
#1050=PLANE('',#1191);
#1051=PLANE('',#1192);
#1052=PLANE('',#1193);
#1053=PLANE('',#1194);
#1054=PLANE('',#1195);
#1055=PLANE('',#1196);
#1056=PLANE('',#1197);
#1057=PLANE('',#1198);
#1058=PLANE('',#1199);
#1059=PLANE('',#1200);
#1060=PLANE('',#1201);
#1061=PLANE('',#1202);
#1062=PLANE('',#1203);
#1063=PLANE('',#1204);
#1064=PLANE('',#1205);
#1065=PLANE('',#1206);
#1066=PLANE('',#1207);
#1067=PLANE('',#1208);
#1068=PLANE('',#1209);
#1069=PLANE('',#1210);
#1070=ADVANCED_FACE('',(#947),#1013,.F.);
#1071=ADVANCED_FACE('',(#948),#1014,.F.);
#1072=ADVANCED_FACE('',(#949),#1015,.T.);
#1073=ADVANCED_FACE('',(#950),#1016,.T.);
#1074=ADVANCED_FACE('',(#951),#1017,.T.);
#1075=ADVANCED_FACE('',(#952),#1018,.T.);
#1076=ADVANCED_FACE('',(#953),#1019,.T.);
#1077=ADVANCED_FACE('',(#954),#1020,.T.);
#1078=ADVANCED_FACE('',(#955),#1021,.T.);
#1079=ADVANCED_FACE('',(#956),#1022,.T.);
#1080=ADVANCED_FACE('',(#957),#1023,.T.);
#1081=ADVANCED_FACE('',(#958),#1024,.T.);
#1082=ADVANCED_FACE('',(#959),#1025,.T.);
#1083=ADVANCED_FACE('',(#960),#1026,.T.);
#1084=ADVANCED_FACE('',(#961),#1027,.F.);
#1085=ADVANCED_FACE('',(#962),#1028,.F.);
#1086=ADVANCED_FACE('',(#963),#1029,.F.);
#1087=ADVANCED_FACE('',(#964),#1030,.F.);
#1088=ADVANCED_FACE('',(#965),#1031,.F.);
#1089=ADVANCED_FACE('',(#966),#1032,.F.);
#1090=ADVANCED_FACE('',(#967,#968,#969,#970),#1033,.T.);
#1091=ADVANCED_FACE('',(#971),#1034,.T.);
#1092=ADVANCED_FACE('',(#972),#1035,.T.);
#1093=ADVANCED_FACE('',(#973,#974),#1036,.T.);
#1094=ADVANCED_FACE('',(#975),#1037,.T.);
#1095=ADVANCED_FACE('',(#976),#1038,.T.);
#1096=ADVANCED_FACE('',(#977,#978),#1039,.T.);
#1097=ADVANCED_FACE('',(#979,#980),#1040,.T.);
#1098=ADVANCED_FACE('',(#981),#1041,.T.);
#1099=ADVANCED_FACE('',(#982),#1042,.T.);
#1100=ADVANCED_FACE('',(#983),#1043,.F.);
#1101=ADVANCED_FACE('',(#984),#1044,.F.);
#1102=ADVANCED_FACE('',(#985),#1045,.F.);
#1103=ADVANCED_FACE('',(#986),#1046,.F.);
#1104=ADVANCED_FACE('',(#987),#1047,.F.);
#1105=ADVANCED_FACE('',(#988),#1048,.F.);
#1106=ADVANCED_FACE('',(#989),#1049,.F.);
#1107=ADVANCED_FACE('',(#990),#1050,.F.);
#1108=ADVANCED_FACE('',(#991),#1051,.F.);
#1109=ADVANCED_FACE('',(#992),#1052,.T.);
#1110=ADVANCED_FACE('',(#993),#1053,.T.);
#1111=ADVANCED_FACE('',(#994),#1054,.T.);
#1112=ADVANCED_FACE('',(#995),#1055,.T.);
#1113=ADVANCED_FACE('',(#996),#1056,.T.);
#1114=ADVANCED_FACE('',(#997),#1057,.T.);
#1115=ADVANCED_FACE('',(#998),#1058,.T.);
#1116=ADVANCED_FACE('',(#999),#1059,.F.);
#1117=ADVANCED_FACE('',(#1000),#1060,.F.);
#1118=ADVANCED_FACE('',(#1001),#1061,.F.);
#1119=ADVANCED_FACE('',(#1002,#1003,#1004,#1005),#1062,.F.);
#1120=ADVANCED_FACE('',(#1006),#1063,.F.);
#1121=ADVANCED_FACE('',(#1007),#1064,.T.);
#1122=ADVANCED_FACE('',(#1008),#1065,.T.);
#1123=ADVANCED_FACE('',(#1009),#1066,.T.);
#1124=ADVANCED_FACE('',(#1010),#1067,.T.);
#1125=ADVANCED_FACE('',(#1011),#1068,.T.);
#1126=ADVANCED_FACE('',(#1012),#1069,.T.);
#1127=CLOSED_SHELL('',(#1070,#1071,#1072,#1073,#1074,#1075,#1076,#1077,
#1078,#1079,#1080,#1081,#1082,#1083,#1084,#1085,#1086,#1087,#1088,#1089,
#1090,#1091,#1092,#1093,#1094,#1095,#1096,#1097,#1098,#1099));
#1128=CLOSED_SHELL('',(#1100,#1101,#1102,#1103,#1104,#1105,#1106,#1107,
#1108,#1109,#1110,#1111,#1112,#1113,#1114,#1115,#1116,#1117,#1118,#1119,
#1120,#1121,#1122,#1123,#1124,#1125,#1126));
#1129=STYLED_ITEM('',(#1131),#1144);
#1130=STYLED_ITEM('',(#1132),#1145);
#1131=PRESENTATION_STYLE_ASSIGNMENT((#1133));
#1132=PRESENTATION_STYLE_ASSIGNMENT((#1134));
#1133=SURFACE_STYLE_USAGE(.BOTH.,#1135);
#1134=SURFACE_STYLE_USAGE(.BOTH.,#1136);
#1135=SURFACE_SIDE_STYLE('',(#1137));
#1136=SURFACE_SIDE_STYLE('',(#1138));
#1137=SURFACE_STYLE_FILL_AREA(#1139);
#1138=SURFACE_STYLE_FILL_AREA(#1140);
#1139=FILL_AREA_STYLE('',(#1141));
#1140=FILL_AREA_STYLE('',(#1142));
#1141=FILL_AREA_STYLE_COLOUR('',#1143);
#1142=FILL_AREA_STYLE_COLOUR('',#18);
#1143=COLOUR_RGB('',0.689999997615814,0.689999997615814,0.689999997615814);
#1144=MANIFOLD_SOLID_BREP('T1SSW-103-01-L-S',#1127);
#1145=MANIFOLD_SOLID_BREP('P2SSW-103-01-L-S',#1128);
#1146=SHAPE_DEFINITION_REPRESENTATION(#1805,#1149);
#1147=SHAPE_DEFINITION_REPRESENTATION(#1806,#1150);
#1148=SHAPE_DEFINITION_REPRESENTATION(#1808,#1151);
#1149=SHAPE_REPRESENTATION('SSW-103-01-L-S',(#1152,#1183,#1211),#1793);
#1150=SHAPE_REPRESENTATION('T1SSW-103-01-L-S',(#1152),#1794);
#1151=SHAPE_REPRESENTATION('P2SSW-103-01-L-S',(#1152),#1795);
#1152=AXIS2_PLACEMENT_3D('',#1482,#1212,#1213);
#1153=AXIS2_PLACEMENT_3D('',#1483,#1214,#1215);
#1154=AXIS2_PLACEMENT_3D('',#1516,#1232,#1233);
#1155=AXIS2_PLACEMENT_3D('',#1549,#1250,#1251);
#1156=AXIS2_PLACEMENT_3D('',#1558,#1256,#1257);
#1157=AXIS2_PLACEMENT_3D('',#1564,#1261,#1262);
#1158=AXIS2_PLACEMENT_3D('',#1570,#1266,#1267);
#1159=AXIS2_PLACEMENT_3D('',#1579,#1272,#1273);
#1160=AXIS2_PLACEMENT_3D('',#1585,#1277,#1278);
#1161=AXIS2_PLACEMENT_3D('',#1591,#1282,#1283);
#1162=AXIS2_PLACEMENT_3D('',#1600,#1288,#1289);
#1163=AXIS2_PLACEMENT_3D('',#1606,#1293,#1294);
#1164=AXIS2_PLACEMENT_3D('',#1612,#1298,#1299);
#1165=AXIS2_PLACEMENT_3D('',#1615,#1302,#1303);
#1166=AXIS2_PLACEMENT_3D('',#1618,#1306,#1307);
#1167=AXIS2_PLACEMENT_3D('',#1621,#1310,#1311);
#1168=AXIS2_PLACEMENT_3D('',#1624,#1314,#1315);
#1169=AXIS2_PLACEMENT_3D('',#1627,#1318,#1319);
#1170=AXIS2_PLACEMENT_3D('',#1630,#1322,#1323);
#1171=AXIS2_PLACEMENT_3D('',#1633,#1326,#1327);
#1172=AXIS2_PLACEMENT_3D('',#1635,#1329,#1330);
#1173=AXIS2_PLACEMENT_3D('',#1637,#1332,#1333);
#1174=AXIS2_PLACEMENT_3D('',#1638,#1334,#1335);
#1175=AXIS2_PLACEMENT_3D('',#1640,#1337,#1338);
#1176=AXIS2_PLACEMENT_3D('',#1642,#1340,#1341);
#1177=AXIS2_PLACEMENT_3D('',#1643,#1342,#1343);
#1178=AXIS2_PLACEMENT_3D('',#1645,#1345,#1346);
#1179=AXIS2_PLACEMENT_3D('',#1647,#1348,#1349);
#1180=AXIS2_PLACEMENT_3D('',#1648,#1350,#1351);
#1181=AXIS2_PLACEMENT_3D('',#1651,#1354,#1355);
#1182=AXIS2_PLACEMENT_3D('',#1652,#1356,#1357);
#1183=AXIS2_PLACEMENT_3D('',#1653,#1358,#1359);
#1184=AXIS2_PLACEMENT_3D('',#1654,#1360,#1361);
#1185=AXIS2_PLACEMENT_3D('',#1667,#1368,#1369);
#1186=AXIS2_PLACEMENT_3D('',#1680,#1376,#1377);
#1187=AXIS2_PLACEMENT_3D('',#1693,#1384,#1385);
#1188=AXIS2_PLACEMENT_3D('',#1706,#1392,#1393);
#1189=AXIS2_PLACEMENT_3D('',#1719,#1400,#1401);
#1190=AXIS2_PLACEMENT_3D('',#1732,#1408,#1409);
#1191=AXIS2_PLACEMENT_3D('',#1735,#1412,#1413);
#1192=AXIS2_PLACEMENT_3D('',#1738,#1416,#1417);
#1193=AXIS2_PLACEMENT_3D('',#1741,#1420,#1421);
#1194=AXIS2_PLACEMENT_3D('',#1744,#1424,#1425);
#1195=AXIS2_PLACEMENT_3D('',#1747,#1428,#1429);
#1196=AXIS2_PLACEMENT_3D('',#1750,#1432,#1433);
#1197=AXIS2_PLACEMENT_3D('',#1753,#1436,#1437);
#1198=AXIS2_PLACEMENT_3D('',#1756,#1440,#1441);
#1199=AXIS2_PLACEMENT_3D('',#1759,#1444,#1445);
#1200=AXIS2_PLACEMENT_3D('',#1768,#1450,#1451);
#1201=AXIS2_PLACEMENT_3D('',#1777,#1456,#1457);
#1202=AXIS2_PLACEMENT_3D('',#1780,#1460,#1461);
#1203=AXIS2_PLACEMENT_3D('',#1782,#1463,#1464);
#1204=AXIS2_PLACEMENT_3D('',#1784,#1466,#1467);
#1205=AXIS2_PLACEMENT_3D('',#1785,#1468,#1469);
#1206=AXIS2_PLACEMENT_3D('',#1786,#1470,#1471);
#1207=AXIS2_PLACEMENT_3D('',#1787,#1472,#1473);
#1208=AXIS2_PLACEMENT_3D('',#1788,#1474,#1475);
#1209=AXIS2_PLACEMENT_3D('',#1789,#1476,#1477);
#1210=AXIS2_PLACEMENT_3D('',#1790,#1478,#1479);
#1211=AXIS2_PLACEMENT_3D('',#1791,#1480,#1481);
#1212=DIRECTION('',(0.,0.,1.));
#1213=DIRECTION('',(1.,0.,0.));
#1214=DIRECTION('',(0.,0.,1.));
#1215=DIRECTION('',(1.,0.,0.));
#1216=DIRECTION('',(-5.12221498812049E-16,-1.,0.));
#1217=DIRECTION('',(1.,5.33564061262551E-17,0.));
#1218=DIRECTION('',(0.,1.,0.));
#1219=DIRECTION('',(-1.,0.,0.));
#1220=DIRECTION('',(0.,-1.,0.));
#1221=DIRECTION('',(1.,5.33564061262551E-17,0.));
#1222=DIRECTION('',(0.,1.,0.));
#1223=DIRECTION('',(-1.,0.,0.));
#1224=DIRECTION('',(0.,-1.,0.));
#1225=DIRECTION('',(1.,5.33564061262551E-17,0.));
#1226=DIRECTION('',(0.,1.,0.));
#1227=DIRECTION('',(-1.,0.,0.));
#1228=DIRECTION('',(0.,-1.,0.));
#1229=DIRECTION('',(-1.,0.,0.));
#1230=DIRECTION('',(0.,-1.,0.));
#1231=DIRECTION('',(-1.,0.,0.));
#1232=DIRECTION('',(0.,0.,-1.));
#1233=DIRECTION('',(-1.,0.,0.));
#1234=DIRECTION('',(5.12221498812049E-16,1.,0.));
#1235=DIRECTION('',(1.,0.,0.));
#1236=DIRECTION('',(0.,-1.,0.));
#1237=DIRECTION('',(1.,0.,0.));
#1238=DIRECTION('',(0.,-1.,0.));
#1239=DIRECTION('',(1.,0.,0.));
#1240=DIRECTION('',(0.,-1.,0.));
#1241=DIRECTION('',(-1.,-5.33564061262551E-17,0.));
#1242=DIRECTION('',(0.,1.,0.));
#1243=DIRECTION('',(1.,0.,0.));
#1244=DIRECTION('',(0.,-1.,0.));
#1245=DIRECTION('',(-1.,-5.33564061262551E-17,0.));
#1246=DIRECTION('',(0.,1.,0.));
#1247=DIRECTION('',(1.,0.,0.));
#1248=DIRECTION('',(0.,-1.,0.));
#1249=DIRECTION('',(-1.,-5.33564061262551E-17,0.));
#1250=DIRECTION('',(0.,0.,1.));
#1251=DIRECTION('',(1.,0.,0.));
#1252=DIRECTION('',(0.,-1.,0.));
#1253=DIRECTION('',(1.,5.33564061262551E-17,0.));
#1254=DIRECTION('',(0.,-1.,0.));
#1255=DIRECTION('',(-1.,0.,0.));
#1256=DIRECTION('',(-1.,0.,0.));
#1257=DIRECTION('',(0.,0.,1.));
#1258=DIRECTION('',(0.,0.,1.));
#1259=DIRECTION('',(0.,-1.,0.));
#1260=DIRECTION('',(0.,0.,-1.));
#1261=DIRECTION('',(0.,0.,-1.));
#1262=DIRECTION('',(-1.,0.,0.));
#1263=DIRECTION('',(-1.,-5.33564061262551E-17,0.));
#1264=DIRECTION('',(0.,-1.,0.));
#1265=DIRECTION('',(1.,0.,0.));
#1266=DIRECTION('',(0.,0.,1.));
#1267=DIRECTION('',(1.,0.,0.));
#1268=DIRECTION('',(0.,-1.,0.));
#1269=DIRECTION('',(1.,5.33564061262551E-17,0.));
#1270=DIRECTION('',(0.,-1.,0.));
#1271=DIRECTION('',(-1.,0.,0.));
#1272=DIRECTION('',(-1.,0.,0.));
#1273=DIRECTION('',(0.,0.,1.));
#1274=DIRECTION('',(0.,0.,1.));
#1275=DIRECTION('',(0.,-1.,0.));
#1276=DIRECTION('',(0.,0.,-1.));
#1277=DIRECTION('',(0.,0.,-1.));
#1278=DIRECTION('',(-1.,0.,0.));
#1279=DIRECTION('',(-1.,-5.33564061262551E-17,0.));
#1280=DIRECTION('',(0.,-1.,0.));
#1281=DIRECTION('',(1.,0.,0.));
#1282=DIRECTION('',(0.,0.,1.));
#1283=DIRECTION('',(1.,0.,0.));
#1284=DIRECTION('',(0.,-1.,0.));
#1285=DIRECTION('',(1.,5.33564061262551E-17,0.));
#1286=DIRECTION('',(0.,-1.,0.));
#1287=DIRECTION('',(-1.,0.,0.));
#1288=DIRECTION('',(-1.,0.,0.));
#1289=DIRECTION('',(0.,0.,1.));
#1290=DIRECTION('',(0.,0.,1.));
#1291=DIRECTION('',(0.,-1.,0.));
#1292=DIRECTION('',(0.,0.,-1.));
#1293=DIRECTION('',(0.,0.,-1.));
#1294=DIRECTION('',(-1.,0.,0.));
#1295=DIRECTION('',(-1.,-5.33564061262551E-17,0.));
#1296=DIRECTION('',(0.,-1.,0.));
#1297=DIRECTION('',(1.,0.,0.));
#1298=DIRECTION('',(1.,0.,0.));
#1299=DIRECTION('',(0.,0.,-1.));
#1300=DIRECTION('',(0.,0.,-1.));
#1301=DIRECTION('',(0.,0.,1.));
#1302=DIRECTION('',(1.,0.,0.));
#1303=DIRECTION('',(0.,0.,-1.));
#1304=DIRECTION('',(0.,0.,-1.));
#1305=DIRECTION('',(0.,0.,1.));
#1306=DIRECTION('',(1.,0.,0.));
#1307=DIRECTION('',(0.,0.,-1.));
#1308=DIRECTION('',(0.,0.,-1.));
#1309=DIRECTION('',(0.,0.,1.));
#1310=DIRECTION('',(0.,1.,0.));
#1311=DIRECTION('',(0.,0.,1.));
#1312=DIRECTION('',(0.,0.,-1.));
#1313=DIRECTION('',(0.,0.,1.));
#1314=DIRECTION('',(0.,1.,0.));
#1315=DIRECTION('',(0.,0.,1.));
#1316=DIRECTION('',(0.,0.,1.));
#1317=DIRECTION('',(0.,0.,-1.));
#1318=DIRECTION('',(0.,1.,0.));
#1319=DIRECTION('',(0.,0.,1.));
#1320=DIRECTION('',(0.,0.,-1.));
#1321=DIRECTION('',(0.,0.,1.));
#1322=DIRECTION('',(0.,1.,0.));
#1323=DIRECTION('',(0.,0.,1.));
#1324=DIRECTION('',(0.,0.,-1.));
#1325=DIRECTION('',(0.,0.,1.));
#1326=DIRECTION('',(1.,0.,0.));
#1327=DIRECTION('',(0.,0.,-1.));
#1328=DIRECTION('',(0.,0.,1.));
#1329=DIRECTION('',(-1.,0.,0.));
#1330=DIRECTION('',(0.,0.,1.));
#1331=DIRECTION('',(0.,0.,-1.));
#1332=DIRECTION('',(0.,1.,0.));
#1333=DIRECTION('',(0.,0.,1.));
#1334=DIRECTION('',(-1.,0.,0.));
#1335=DIRECTION('',(0.,0.,1.));
#1336=DIRECTION('',(0.,0.,-1.));
#1337=DIRECTION('',(1.,0.,0.));
#1338=DIRECTION('',(0.,0.,-1.));
#1339=DIRECTION('',(0.,0.,-1.));
#1340=DIRECTION('',(5.33564061262551E-17,-1.,0.));
#1341=DIRECTION('',(1.,5.33564061262551E-17,0.));
#1342=DIRECTION('',(-1.,0.,0.));
#1343=DIRECTION('',(0.,0.,1.));
#1344=DIRECTION('',(0.,0.,-1.));
#1345=DIRECTION('',(1.,0.,0.));
#1346=DIRECTION('',(0.,0.,-1.));
#1347=DIRECTION('',(0.,0.,-1.));
#1348=DIRECTION('',(5.33564061262551E-17,-1.,0.));
#1349=DIRECTION('',(1.,5.33564061262551E-17,0.));
#1350=DIRECTION('',(5.33564061262551E-17,-1.,0.));
#1351=DIRECTION('',(1.,5.33564061262551E-17,0.));
#1352=DIRECTION('',(0.,0.,-1.));
#1353=DIRECTION('',(0.,0.,-1.));
#1354=DIRECTION('',(-1.,5.12221498812049E-16,0.));
#1355=DIRECTION('',(-5.12221498812049E-16,-1.,0.));
#1356=DIRECTION('',(1.,0.,0.));
#1357=DIRECTION('',(0.,0.,-1.));
#1358=DIRECTION('',(0.,0.,1.));
#1359=DIRECTION('',(1.,0.,0.));
#1360=DIRECTION('',(0.,0.,-1.));
#1361=DIRECTION('',(-1.,0.,0.));
#1362=DIRECTION('',(-0.5,-0.866025403784439,0.));
#1363=DIRECTION('',(0.,-1.,0.));
#1364=DIRECTION('',(1.,0.,0.));
#1365=DIRECTION('',(0.,1.,0.));
#1366=DIRECTION('',(-0.5,0.866025403784439,0.));
#1367=DIRECTION('',(-1.,0.,0.));
#1368=DIRECTION('',(0.,0.,-1.));
#1369=DIRECTION('',(-1.,0.,0.));
#1370=DIRECTION('',(-0.5,-0.866025403784439,0.));
#1371=DIRECTION('',(0.,-1.,0.));
#1372=DIRECTION('',(1.,0.,0.));
#1373=DIRECTION('',(0.,1.,0.));
#1374=DIRECTION('',(-0.5,0.866025403784439,0.));
#1375=DIRECTION('',(-1.,0.,0.));
#1376=DIRECTION('',(0.,0.,-1.));
#1377=DIRECTION('',(-1.,0.,0.));
#1378=DIRECTION('',(-0.5,0.866025403784439,0.));
#1379=DIRECTION('',(-1.,0.,0.));
#1380=DIRECTION('',(-0.5,-0.866025403784439,0.));
#1381=DIRECTION('',(0.,-1.,0.));
#1382=DIRECTION('',(1.,0.,0.));
#1383=DIRECTION('',(0.,1.,0.));
#1384=DIRECTION('',(0.,0.,1.));
#1385=DIRECTION('',(1.,0.,0.));
#1386=DIRECTION('',(0.5,0.866025403784439,0.));
#1387=DIRECTION('',(-1.,0.,0.));
#1388=DIRECTION('',(0.5,-0.866025403784439,0.));
#1389=DIRECTION('',(0.,-1.,0.));
#1390=DIRECTION('',(-1.,0.,0.));
#1391=DIRECTION('',(0.,1.,0.));
#1392=DIRECTION('',(0.,0.,1.));
#1393=DIRECTION('',(1.,0.,0.));
#1394=DIRECTION('',(0.5,0.866025403784439,0.));
#1395=DIRECTION('',(-1.,0.,0.));
#1396=DIRECTION('',(0.5,-0.866025403784439,0.));
#1397=DIRECTION('',(0.,-1.,0.));
#1398=DIRECTION('',(-1.,0.,0.));
#1399=DIRECTION('',(0.,1.,0.));
#1400=DIRECTION('',(0.,0.,1.));
#1401=DIRECTION('',(1.,0.,0.));
#1402=DIRECTION('',(0.5,-0.866025403784439,0.));
#1403=DIRECTION('',(0.,-1.,0.));
#1404=DIRECTION('',(-1.,0.,0.));
#1405=DIRECTION('',(0.,1.,0.));
#1406=DIRECTION('',(0.5,0.866025403784439,0.));
#1407=DIRECTION('',(-1.,0.,0.));
#1408=DIRECTION('',(0.,1.,0.));
#1409=DIRECTION('',(0.,0.,1.));
#1410=DIRECTION('',(0.,0.,-1.));
#1411=DIRECTION('',(0.,0.,-1.));
#1412=DIRECTION('',(0.,1.,0.));
#1413=DIRECTION('',(0.,0.,1.));
#1414=DIRECTION('',(0.,0.,-1.));
#1415=DIRECTION('',(0.,0.,-1.));
#1416=DIRECTION('',(0.,1.,0.));
#1417=DIRECTION('',(0.,0.,1.));
#1418=DIRECTION('',(0.,0.,-1.));
#1419=DIRECTION('',(0.,0.,-1.));
#1420=DIRECTION('',(-1.,0.,0.));
#1421=DIRECTION('',(0.,0.,1.));
#1422=DIRECTION('',(0.,0.,1.));
#1423=DIRECTION('',(0.,0.,-1.));
#1424=DIRECTION('',(1.,0.,0.));
#1425=DIRECTION('',(0.,0.,-1.));
#1426=DIRECTION('',(0.,0.,-1.));
#1427=DIRECTION('',(0.,0.,-1.));
#1428=DIRECTION('',(1.,0.,0.));
#1429=DIRECTION('',(0.,0.,-1.));
#1430=DIRECTION('',(0.,0.,-1.));
#1431=DIRECTION('',(0.,0.,-1.));
#1432=DIRECTION('',(-1.,0.,0.));
#1433=DIRECTION('',(0.,0.,1.));
#1434=DIRECTION('',(0.,0.,1.));
#1435=DIRECTION('',(0.,0.,-1.));
#1436=DIRECTION('',(-1.,0.,0.));
#1437=DIRECTION('',(0.,0.,1.));
#1438=DIRECTION('',(0.,0.,1.));
#1439=DIRECTION('',(0.,0.,-1.));
#1440=DIRECTION('',(1.,0.,0.));
#1441=DIRECTION('',(0.,0.,-1.));
#1442=DIRECTION('',(0.,0.,-1.));
#1443=DIRECTION('',(0.,0.,-1.));
#1444=DIRECTION('',(1.,0.,0.));
#1445=DIRECTION('',(0.,0.,-1.));
#1446=DIRECTION('',(0.,0.,-1.));
#1447=DIRECTION('',(0.,-1.,0.));
#1448=DIRECTION('',(0.,0.,1.));
#1449=DIRECTION('',(0.,-1.,0.));
#1450=DIRECTION('',(1.,0.,0.));
#1451=DIRECTION('',(0.,0.,-1.));
#1452=DIRECTION('',(0.,-1.,0.));
#1453=DIRECTION('',(0.,0.,1.));
#1454=DIRECTION('',(0.,-1.,0.));
#1455=DIRECTION('',(0.,0.,1.));
#1456=DIRECTION('',(0.,-1.,0.));
#1457=DIRECTION('',(0.,0.,-1.));
#1458=DIRECTION('',(1.,0.,0.));
#1459=DIRECTION('',(-1.,0.,0.));
#1460=DIRECTION('',(0.,0.,1.));
#1461=DIRECTION('',(1.,0.,0.));
#1462=DIRECTION('',(-1.,0.,0.));
#1463=DIRECTION('',(0.,1.,0.));
#1464=DIRECTION('',(0.,0.,1.));
#1465=DIRECTION('',(1.,0.,0.));
#1466=DIRECTION('',(0.,0.,-1.));
#1467=DIRECTION('',(-1.,0.,0.));
#1468=DIRECTION('',(0.866025403784438,-0.5,0.));
#1469=DIRECTION('',(0.5,0.866025403784439,0.));
#1470=DIRECTION('',(-0.866025403784439,-0.5,0.));
#1471=DIRECTION('',(0.5,-0.866025403784439,0.));
#1472=DIRECTION('',(-0.866025403784439,-0.5,0.));
#1473=DIRECTION('',(0.5,-0.866025403784439,0.));
#1474=DIRECTION('',(0.866025403784438,-0.5,0.));
#1475=DIRECTION('',(0.5,0.866025403784439,0.));
#1476=DIRECTION('',(0.866025403784438,-0.5,0.));
#1477=DIRECTION('',(0.5,0.866025403784439,0.));
#1478=DIRECTION('',(-0.866025403784439,-0.5,0.));
#1479=DIRECTION('',(0.5,-0.866025403784439,0.));
#1480=DIRECTION('',(0.,0.,1.));
#1481=DIRECTION('',(1.,0.,0.));
#1482=CARTESIAN_POINT('',(0.,0.,0.));
#1483=CARTESIAN_POINT('',(0.16,0.335,-0.0475));
#1484=CARTESIAN_POINT('',(0.14,0.335,-0.0475));
#1485=CARTESIAN_POINT('',(0.14,0.02,-0.0475));
#1486=CARTESIAN_POINT('',(0.14,0.,-0.0475));
#1487=CARTESIAN_POINT('',(0.16,0.02,-0.0475));
#1488=CARTESIAN_POINT('',(0.06,0.02,-0.0475));
#1489=CARTESIAN_POINT('',(0.06,0.335,-0.0475));
#1490=CARTESIAN_POINT('',(0.06,0.,-0.0475));
#1491=CARTESIAN_POINT('',(0.16,0.,-0.0475));
#1492=CARTESIAN_POINT('',(0.04,0.,-0.0475));
#1493=CARTESIAN_POINT('',(0.04,0.335,-0.0475));
#1494=CARTESIAN_POINT('',(0.04,0.02,-0.0475));
#1495=CARTESIAN_POINT('',(0.16,0.02,-0.0475));
#1496=CARTESIAN_POINT('',(-0.04,0.02,-0.0475));
#1497=CARTESIAN_POINT('',(-0.04,0.335,-0.0475));
#1498=CARTESIAN_POINT('',(-0.04,0.,-0.0475));
#1499=CARTESIAN_POINT('',(0.16,0.,-0.0475));
#1500=CARTESIAN_POINT('',(-0.06,0.,-0.0475));
#1501=CARTESIAN_POINT('',(-0.06,0.335,-0.0475));
#1502=CARTESIAN_POINT('',(-0.06,0.02,-0.0475));
#1503=CARTESIAN_POINT('',(0.16,0.02,-0.0475));
#1504=CARTESIAN_POINT('',(-0.14,0.02,-0.0475));
#1505=CARTESIAN_POINT('',(-0.14,0.335,-0.0475));
#1506=CARTESIAN_POINT('',(-0.14,0.,-0.0475));
#1507=CARTESIAN_POINT('',(0.16,0.,-0.0475));
#1508=CARTESIAN_POINT('',(-0.16,0.,-0.0475));
#1509=CARTESIAN_POINT('',(-0.16,0.335,-0.0475));
#1510=CARTESIAN_POINT('',(-0.16,0.335,-0.0475));
#1511=CARTESIAN_POINT('',(0.16,0.335,-0.0475));
#1512=CARTESIAN_POINT('',(0.16,0.335,-0.0475));
#1513=CARTESIAN_POINT('',(0.16,0.335,-0.0475));
#1514=CARTESIAN_POINT('',(0.16,0.,-0.0475));
#1515=CARTESIAN_POINT('',(0.16,0.,-0.0475));
#1516=CARTESIAN_POINT('',(-0.16,0.335,0.0475));
#1517=CARTESIAN_POINT('',(0.14,0.335,0.0475));
#1518=CARTESIAN_POINT('',(0.14,0.,0.0475));
#1519=CARTESIAN_POINT('',(0.14,0.02,0.0475));
#1520=CARTESIAN_POINT('',(-0.16,0.,0.0475));
#1521=CARTESIAN_POINT('',(0.16,0.,0.0475));
#1522=CARTESIAN_POINT('',(0.16,0.335,0.0475));
#1523=CARTESIAN_POINT('',(0.16,0.335,0.0475));
#1524=CARTESIAN_POINT('',(-0.16,0.335,0.0475));
#1525=CARTESIAN_POINT('',(-0.16,0.335,0.0475));
#1526=CARTESIAN_POINT('',(-0.16,0.335,0.0475));
#1527=CARTESIAN_POINT('',(-0.16,0.,0.0475));
#1528=CARTESIAN_POINT('',(-0.16,0.,0.0475));
#1529=CARTESIAN_POINT('',(-0.14,0.,0.0475));
#1530=CARTESIAN_POINT('',(-0.14,0.335,0.0475));
#1531=CARTESIAN_POINT('',(-0.14,0.02,0.0475));
#1532=CARTESIAN_POINT('',(-0.16,0.02,0.0475));
#1533=CARTESIAN_POINT('',(-0.06,0.02,0.0475));
#1534=CARTESIAN_POINT('',(-0.06,0.335,0.0475));
#1535=CARTESIAN_POINT('',(-0.06,0.,0.0475));
#1536=CARTESIAN_POINT('',(-0.16,0.,0.0475));
#1537=CARTESIAN_POINT('',(-0.04,0.,0.0475));
#1538=CARTESIAN_POINT('',(-0.04,0.335,0.0475));
#1539=CARTESIAN_POINT('',(-0.04,0.02,0.0475));
#1540=CARTESIAN_POINT('',(-0.16,0.02,0.0475));
#1541=CARTESIAN_POINT('',(0.04,0.02,0.0475));
#1542=CARTESIAN_POINT('',(0.04,0.335,0.0475));
#1543=CARTESIAN_POINT('',(0.04,0.,0.0475));
#1544=CARTESIAN_POINT('',(-0.16,0.,0.0475));
#1545=CARTESIAN_POINT('',(0.06,0.,0.0475));
#1546=CARTESIAN_POINT('',(0.06,0.335,0.0475));
#1547=CARTESIAN_POINT('',(0.06,0.02,0.0475));
#1548=CARTESIAN_POINT('',(-0.16,0.02,0.0475));
#1549=CARTESIAN_POINT('',(0.1155,0.335,-0.0155));
#1550=CARTESIAN_POINT('',(0.0845,0.335,-0.0155));
#1551=CARTESIAN_POINT('',(0.0845,0.335,-0.0155));
#1552=CARTESIAN_POINT('',(0.0845,0.02,-0.0155));
#1553=CARTESIAN_POINT('',(0.1155,0.02,-0.0155));
#1554=CARTESIAN_POINT('',(0.1155,0.02,-0.0155));
#1555=CARTESIAN_POINT('',(0.1155,0.335,-0.0155));
#1556=CARTESIAN_POINT('',(0.1155,0.335,-0.0155));
#1557=CARTESIAN_POINT('',(0.1155,0.335,-0.0155));
#1558=CARTESIAN_POINT('',(0.1155,0.335,0.0155));
#1559=CARTESIAN_POINT('',(0.1155,0.02,0.0155));
#1560=CARTESIAN_POINT('',(0.1155,0.02,0.0155));
#1561=CARTESIAN_POINT('',(0.1155,0.335,0.0155));
#1562=CARTESIAN_POINT('',(0.1155,0.335,0.0155));
#1563=CARTESIAN_POINT('',(0.1155,0.335,0.0155));
#1564=CARTESIAN_POINT('',(0.0845,0.335,0.0155));
#1565=CARTESIAN_POINT('',(0.0845,0.02,0.0155));
#1566=CARTESIAN_POINT('',(0.0845,0.02,0.0155));
#1567=CARTESIAN_POINT('',(0.0845,0.335,0.0155));
#1568=CARTESIAN_POINT('',(0.0845,0.335,0.0155));
#1569=CARTESIAN_POINT('',(0.0845,0.335,0.0155));
#1570=CARTESIAN_POINT('',(0.0155,0.335,-0.0155));
#1571=CARTESIAN_POINT('',(-0.0155,0.335,-0.0155));
#1572=CARTESIAN_POINT('',(-0.0155,0.335,-0.0155));
#1573=CARTESIAN_POINT('',(-0.0155,0.02,-0.0155));
#1574=CARTESIAN_POINT('',(0.0155,0.02,-0.0155));
#1575=CARTESIAN_POINT('',(0.0155,0.02,-0.0155));
#1576=CARTESIAN_POINT('',(0.0155,0.335,-0.0155));
#1577=CARTESIAN_POINT('',(0.0155,0.335,-0.0155));
#1578=CARTESIAN_POINT('',(0.0155,0.335,-0.0155));
#1579=CARTESIAN_POINT('',(0.0155,0.335,0.0155));
#1580=CARTESIAN_POINT('',(0.0155,0.02,0.0155));
#1581=CARTESIAN_POINT('',(0.0155,0.02,0.0155));
#1582=CARTESIAN_POINT('',(0.0155,0.335,0.0155));
#1583=CARTESIAN_POINT('',(0.0155,0.335,0.0155));
#1584=CARTESIAN_POINT('',(0.0155,0.335,0.0155));
#1585=CARTESIAN_POINT('',(-0.0155,0.335,0.0155));
#1586=CARTESIAN_POINT('',(-0.0155,0.02,0.0155));
#1587=CARTESIAN_POINT('',(-0.0155,0.02,0.0155));
#1588=CARTESIAN_POINT('',(-0.0155,0.335,0.0155));
#1589=CARTESIAN_POINT('',(-0.0155,0.335,0.0155));
#1590=CARTESIAN_POINT('',(-0.0155,0.335,0.0155));
#1591=CARTESIAN_POINT('',(-0.0845,0.335,-0.0155));
#1592=CARTESIAN_POINT('',(-0.1155,0.335,-0.0155));
#1593=CARTESIAN_POINT('',(-0.1155,0.335,-0.0155));
#1594=CARTESIAN_POINT('',(-0.1155,0.02,-0.0155));
#1595=CARTESIAN_POINT('',(-0.0845,0.02,-0.0155));
#1596=CARTESIAN_POINT('',(-0.0845,0.02,-0.0155));
#1597=CARTESIAN_POINT('',(-0.0845,0.335,-0.0155));
#1598=CARTESIAN_POINT('',(-0.0845,0.335,-0.0155));
#1599=CARTESIAN_POINT('',(-0.0845,0.335,-0.0155));
#1600=CARTESIAN_POINT('',(-0.0845,0.335,0.0155));
#1601=CARTESIAN_POINT('',(-0.0845,0.02,0.0155));
#1602=CARTESIAN_POINT('',(-0.0845,0.02,0.0155));
#1603=CARTESIAN_POINT('',(-0.0845,0.335,0.0155));
#1604=CARTESIAN_POINT('',(-0.0845,0.335,0.0155));
#1605=CARTESIAN_POINT('',(-0.0845,0.335,0.0155));
#1606=CARTESIAN_POINT('',(-0.1155,0.335,0.0155));
#1607=CARTESIAN_POINT('',(-0.1155,0.02,0.0155));
#1608=CARTESIAN_POINT('',(-0.1155,0.02,0.0155));
#1609=CARTESIAN_POINT('',(-0.1155,0.335,0.0155));
#1610=CARTESIAN_POINT('',(-0.1155,0.335,0.0155));
#1611=CARTESIAN_POINT('',(-0.1155,0.335,0.0155));
#1612=CARTESIAN_POINT('',(0.0845,0.335,-0.0155));
#1613=CARTESIAN_POINT('',(0.0845,0.02,-0.0155));
#1614=CARTESIAN_POINT('',(0.0845,0.335,-0.0155));
#1615=CARTESIAN_POINT('',(-0.0155,0.335,-0.0155));
#1616=CARTESIAN_POINT('',(-0.0155,0.02,-0.0155));
#1617=CARTESIAN_POINT('',(-0.0155,0.335,-0.0155));
#1618=CARTESIAN_POINT('',(-0.1155,0.335,-0.0155));
#1619=CARTESIAN_POINT('',(-0.1155,0.02,-0.0155));
#1620=CARTESIAN_POINT('',(-0.1155,0.335,-0.0155));
#1621=CARTESIAN_POINT('',(0.,0.,0.));
#1622=CARTESIAN_POINT('',(-0.14,0.,0.));
#1623=CARTESIAN_POINT('',(-0.16,0.,-0.0475));
#1624=CARTESIAN_POINT('',(0.,0.,0.));
#1625=CARTESIAN_POINT('',(0.14,0.,0.));
#1626=CARTESIAN_POINT('',(0.16,0.,0.0475));
#1627=CARTESIAN_POINT('',(0.,0.,0.));
#1628=CARTESIAN_POINT('',(0.06,0.,0.));
#1629=CARTESIAN_POINT('',(0.04,0.,0.));
#1630=CARTESIAN_POINT('',(0.,0.,0.));
#1631=CARTESIAN_POINT('',(-0.04,0.,0.));
#1632=CARTESIAN_POINT('',(-0.06,0.,0.));
#1633=CARTESIAN_POINT('',(-0.16,0.335,-0.0475));
#1634=CARTESIAN_POINT('',(-0.16,0.335,-0.0475));
#1635=CARTESIAN_POINT('',(0.16,0.335,0.0475));
#1636=CARTESIAN_POINT('',(0.16,0.335,0.0475));
#1637=CARTESIAN_POINT('',(0.,0.335,0.));
#1638=CARTESIAN_POINT('',(-0.06,-0.05,0.2));
#1639=CARTESIAN_POINT('',(-0.06,0.02,0.2));
#1640=CARTESIAN_POINT('',(-0.14,0.02,0.2));
#1641=CARTESIAN_POINT('',(-0.14,0.02,0.2));
#1642=CARTESIAN_POINT('',(-0.06,0.02,0.2));
#1643=CARTESIAN_POINT('',(0.04,-0.05,0.2));
#1644=CARTESIAN_POINT('',(0.04,0.02,0.2));
#1645=CARTESIAN_POINT('',(-0.04,0.02,0.2));
#1646=CARTESIAN_POINT('',(-0.04,0.02,0.2));
#1647=CARTESIAN_POINT('',(0.04,0.02,0.2));
#1648=CARTESIAN_POINT('',(0.14,0.02,0.2));
#1649=CARTESIAN_POINT('',(0.14,0.02,0.2));
#1650=CARTESIAN_POINT('',(0.06,0.02,0.2));
#1651=CARTESIAN_POINT('',(0.14,-0.08,0.2));
#1652=CARTESIAN_POINT('',(0.06,0.02,0.2));
#1653=CARTESIAN_POINT('',(0.,0.,0.));
#1654=CARTESIAN_POINT('',(0.1205,0.144,0.008));
#1655=CARTESIAN_POINT('',(0.17160382907248,0.114495190528383,0.008));
#1656=CARTESIAN_POINT('',(0.1155,0.0173205080756888,0.00800000000000002));
#1657=CARTESIAN_POINT('',(0.1055,0.,0.00800000000000002));
#1658=CARTESIAN_POINT('',(0.1155,0.144,0.008));
#1659=CARTESIAN_POINT('',(0.1155,0.139,0.00800000000000002));
#1660=CARTESIAN_POINT('',(0.1205,0.139,0.008));
#1661=CARTESIAN_POINT('',(0.0845,0.139,0.00800000000000002));
#1662=CARTESIAN_POINT('',(0.0845,0.144,0.008));
#1663=CARTESIAN_POINT('',(0.0845,0.0173205080756887,0.008));
#1664=CARTESIAN_POINT('',(0.0386461709275204,0.0967416697508023,0.008));
#1665=CARTESIAN_POINT('',(0.0945,0.,0.00800000000000002));
#1666=CARTESIAN_POINT('',(0.1205,0.,0.008));
#1667=CARTESIAN_POINT('',(0.1205,0.144,0.008));
#1668=CARTESIAN_POINT('',(0.0966038290724796,0.157796460717605,0.008));
#1669=CARTESIAN_POINT('',(0.0155,0.0173205080756887,0.00800000000000002));
#1670=CARTESIAN_POINT('',(0.0055,0.,0.00800000000000002));
#1671=CARTESIAN_POINT('',(0.0155,0.144,0.008));
#1672=CARTESIAN_POINT('',(0.0155,0.139,0.00800000000000002));
#1673=CARTESIAN_POINT('',(0.1205,0.139,0.008));
#1674=CARTESIAN_POINT('',(-0.0155,0.139,0.00800000000000002));
#1675=CARTESIAN_POINT('',(-0.0155,0.144,0.008));
#1676=CARTESIAN_POINT('',(-0.0155,0.0173205080756887,0.008));
#1677=CARTESIAN_POINT('',(-0.0363538290724796,0.0534403995615804,0.008));
#1678=CARTESIAN_POINT('',(-0.0055,0.,0.00800000000000002));
#1679=CARTESIAN_POINT('',(0.1205,0.,0.008));
#1680=CARTESIAN_POINT('',(0.1205,0.144,0.008));
#1681=CARTESIAN_POINT('',(-0.11135382907248,0.0101391293723585,0.008));
#1682=CARTESIAN_POINT('',(-0.1055,0.,0.00800000000000002));
#1683=CARTESIAN_POINT('',(-0.1155,0.0173205080756887,0.008));
#1684=CARTESIAN_POINT('',(0.1205,0.,0.008));
#1685=CARTESIAN_POINT('',(-0.0945,0.,0.00800000000000002));
#1686=CARTESIAN_POINT('',(0.0216038290724796,0.201097730906827,0.008));
#1687=CARTESIAN_POINT('',(-0.0845,0.0173205080756887,0.00800000000000002));
#1688=CARTESIAN_POINT('',(-0.0845,0.144,0.008));
#1689=CARTESIAN_POINT('',(-0.0845,0.139,0.00800000000000002));
#1690=CARTESIAN_POINT('',(0.1205,0.139,0.008));
#1691=CARTESIAN_POINT('',(-0.1155,0.139,0.00800000000000002));
#1692=CARTESIAN_POINT('',(-0.1155,0.144,0.008));
#1693=CARTESIAN_POINT('',(0.1205,0.,-0.008));
#1694=CARTESIAN_POINT('',(0.10925,0.00649519052838329,-0.008));
#1695=CARTESIAN_POINT('',(0.1055,0.,-0.00800000000000002));
#1696=CARTESIAN_POINT('',(0.1155,0.0173205080756888,-0.008));
#1697=CARTESIAN_POINT('',(0.1205,0.,-0.008));
#1698=CARTESIAN_POINT('',(0.0945,0.,-0.00800000000000002));
#1699=CARTESIAN_POINT('',(0.101,-0.0112583302491977,-0.008));
#1700=CARTESIAN_POINT('',(0.0845,0.0173205080756888,-0.00800000000000002));
#1701=CARTESIAN_POINT('',(0.0845,0.,-0.008));
#1702=CARTESIAN_POINT('',(0.0845,0.139,-0.00800000000000002));
#1703=CARTESIAN_POINT('',(0.1205,0.139,-0.008));
#1704=CARTESIAN_POINT('',(0.1155,0.139,-0.00800000000000002));
#1705=CARTESIAN_POINT('',(0.1155,0.,-0.008));
#1706=CARTESIAN_POINT('',(0.1205,0.,-0.008));
#1707=CARTESIAN_POINT('',(0.03425,0.0497964607176052,-0.008));
#1708=CARTESIAN_POINT('',(0.0055,0.,-0.00800000000000002));
#1709=CARTESIAN_POINT('',(0.0155,0.0173205080756888,-0.008));
#1710=CARTESIAN_POINT('',(0.1205,0.,-0.008));
#1711=CARTESIAN_POINT('',(-0.0055,0.,-0.00800000000000002));
#1712=CARTESIAN_POINT('',(0.026,-0.0545596004384196,-0.008));
#1713=CARTESIAN_POINT('',(-0.0155,0.0173205080756888,-0.00800000000000002));
#1714=CARTESIAN_POINT('',(-0.0155,0.,-0.008));
#1715=CARTESIAN_POINT('',(-0.0155,0.139,-0.00800000000000002));
#1716=CARTESIAN_POINT('',(0.1205,0.139,-0.008));
#1717=CARTESIAN_POINT('',(0.0155,0.139,-0.00800000000000002));
#1718=CARTESIAN_POINT('',(0.0155,0.,-0.008));
#1719=CARTESIAN_POINT('',(0.1205,0.,-0.008));
#1720=CARTESIAN_POINT('',(-0.049,-0.0978608706276415,-0.008));
#1721=CARTESIAN_POINT('',(-0.1155,0.0173205080756888,-0.00800000000000002));
#1722=CARTESIAN_POINT('',(-0.1055,0.,-0.00800000000000002));
#1723=CARTESIAN_POINT('',(-0.1155,0.,-0.008));
#1724=CARTESIAN_POINT('',(-0.1155,0.139,-0.00800000000000002));
#1725=CARTESIAN_POINT('',(0.1205,0.139,-0.008));
#1726=CARTESIAN_POINT('',(-0.0845,0.139,-0.00800000000000002));
#1727=CARTESIAN_POINT('',(-0.0845,0.,-0.008));
#1728=CARTESIAN_POINT('',(-0.0845,0.0173205080756888,-0.008));
#1729=CARTESIAN_POINT('',(-0.04075,0.0930977309068272,-0.008));
#1730=CARTESIAN_POINT('',(-0.0945,0.,-0.00800000000000002));
#1731=CARTESIAN_POINT('',(0.1205,0.,-0.008));
#1732=CARTESIAN_POINT('',(0.1205,0.,0.008));
#1733=CARTESIAN_POINT('',(0.1055,0.,0.5));
#1734=CARTESIAN_POINT('',(0.0945,0.,0.5));
#1735=CARTESIAN_POINT('',(0.1205,0.,0.008));
#1736=CARTESIAN_POINT('',(0.0055,0.,0.5));
#1737=CARTESIAN_POINT('',(-0.0055,0.,0.5));
#1738=CARTESIAN_POINT('',(0.1205,0.,0.008));
#1739=CARTESIAN_POINT('',(-0.1055,0.,0.5));
#1740=CARTESIAN_POINT('',(-0.0945,0.,0.5));
#1741=CARTESIAN_POINT('',(-0.1155,-0.35,1.));
#1742=CARTESIAN_POINT('',(-0.1155,0.0173205080756887,1.));
#1743=CARTESIAN_POINT('',(-0.1155,0.139,1.));
#1744=CARTESIAN_POINT('',(0.1155,0.139,1.));
#1745=CARTESIAN_POINT('',(0.1155,0.0173205080756888,1.));
#1746=CARTESIAN_POINT('',(0.1155,0.139,1.));
#1747=CARTESIAN_POINT('',(-0.0845,0.139,1.));
#1748=CARTESIAN_POINT('',(-0.0845,0.0173205080756888,1.));
#1749=CARTESIAN_POINT('',(-0.0845,0.139,1.));
#1750=CARTESIAN_POINT('',(-0.0155,-0.35,1.));
#1751=CARTESIAN_POINT('',(-0.0155,0.0173205080756887,1.));
#1752=CARTESIAN_POINT('',(-0.0155,0.139,1.));
#1753=CARTESIAN_POINT('',(0.0845,-0.35,1.));
#1754=CARTESIAN_POINT('',(0.0845,0.0173205080756887,1.));
#1755=CARTESIAN_POINT('',(0.0845,0.139,1.));
#1756=CARTESIAN_POINT('',(0.0155,0.139,1.));
#1757=CARTESIAN_POINT('',(0.0155,0.0173205080756888,1.));
#1758=CARTESIAN_POINT('',(0.0155,0.139,1.));
#1759=CARTESIAN_POINT('',(0.1205,0.,0.));
#1760=CARTESIAN_POINT('',(0.1205,0.139,0.024));
#1761=CARTESIAN_POINT('',(0.1205,0.139,0.024));
#1762=CARTESIAN_POINT('',(0.1205,0.139,-0.024));
#1763=CARTESIAN_POINT('',(0.1205,0.144,-0.024));
#1764=CARTESIAN_POINT('',(0.1205,0.144,-0.024));
#1765=CARTESIAN_POINT('',(0.1205,0.144,-0.008));
#1766=CARTESIAN_POINT('',(0.1205,0.144,0.024));
#1767=CARTESIAN_POINT('',(0.1205,0.144,0.024));
#1768=CARTESIAN_POINT('',(-0.1205,0.,0.));
#1769=CARTESIAN_POINT('',(-0.1205,0.144,-0.024));
#1770=CARTESIAN_POINT('',(-0.1205,0.144,-0.024));
#1771=CARTESIAN_POINT('',(-0.1205,0.139,-0.024));
#1772=CARTESIAN_POINT('',(-0.1205,0.139,-0.024));
#1773=CARTESIAN_POINT('',(-0.1205,0.139,0.024));
#1774=CARTESIAN_POINT('',(-0.1205,0.144,0.024));
#1775=CARTESIAN_POINT('',(-0.1205,0.144,0.024));
#1776=CARTESIAN_POINT('',(-0.1205,0.144,-0.008));
#1777=CARTESIAN_POINT('',(0.1205,0.144,-0.008));
#1778=CARTESIAN_POINT('',(-0.1205,0.144,0.024));
#1779=CARTESIAN_POINT('',(0.1205,0.144,-0.024));
#1780=CARTESIAN_POINT('',(0.1205,0.144,-0.024));
#1781=CARTESIAN_POINT('',(0.1205,0.139,-0.024));
#1782=CARTESIAN_POINT('',(0.,0.139,0.));
#1783=CARTESIAN_POINT('',(-0.1205,0.139,0.024));
#1784=CARTESIAN_POINT('',(-0.1205,0.144,0.024));
#1785=CARTESIAN_POINT('',(0.0155,0.0173205080756888,0.5));
#1786=CARTESIAN_POINT('',(0.0945,0.,0.5));
#1787=CARTESIAN_POINT('',(-0.0055,0.,0.5));
#1788=CARTESIAN_POINT('',(-0.0845,0.0173205080756888,0.5));
#1789=CARTESIAN_POINT('',(0.1155,0.0173205080756888,0.5));
#1790=CARTESIAN_POINT('',(-0.1055,0.,0.5));
#1791=CARTESIAN_POINT('',(0.,-0.104,-1.27363267111325E-17));
#1792=MECHANICAL_DESIGN_GEOMETRIC_PRESENTATION_REPRESENTATION('',(#1129,
#1130),#1793);
#1793=(
GEOMETRIC_REPRESENTATION_CONTEXT(3)
GLOBAL_UNCERTAINTY_ASSIGNED_CONTEXT((#1796))
GLOBAL_UNIT_ASSIGNED_CONTEXT((#1801,#1800,#1799))
REPRESENTATION_CONTEXT('SSW-103-01-L-S','TOP_LEVEL_ASSEMBLY_PART')
);
#1794=(
GEOMETRIC_REPRESENTATION_CONTEXT(3)
GLOBAL_UNCERTAINTY_ASSIGNED_CONTEXT((#1797))
GLOBAL_UNIT_ASSIGNED_CONTEXT((#1801,#1800,#1799))
REPRESENTATION_CONTEXT('T1SSW-103-01-L-S','COMPONENT_PART')
);
#1795=(
GEOMETRIC_REPRESENTATION_CONTEXT(3)
GLOBAL_UNCERTAINTY_ASSIGNED_CONTEXT((#1798))
GLOBAL_UNIT_ASSIGNED_CONTEXT((#1801,#1800,#1799))
REPRESENTATION_CONTEXT('P2SSW-103-01-L-S','COMPONENT_PART')
);
#1796=UNCERTAINTY_MEASURE_WITH_UNIT(LENGTH_MEASURE(3.93700787401575E-7),
#1801,'DISTANCE_ACCURACY_VALUE','Maximum Tolerance applied to model');
#1797=UNCERTAINTY_MEASURE_WITH_UNIT(LENGTH_MEASURE(3.93700787401575E-7),
#1801,'DISTANCE_ACCURACY_VALUE','Maximum Tolerance applied to model');
#1798=UNCERTAINTY_MEASURE_WITH_UNIT(LENGTH_MEASURE(3.93700787401575E-7),
#1801,'DISTANCE_ACCURACY_VALUE','Maximum Tolerance applied to model');
#1799=(
NAMED_UNIT(*)
SI_UNIT($,.STERADIAN.)
SOLID_ANGLE_UNIT()
);
#1800=(
NAMED_UNIT(*)
PLANE_ANGLE_UNIT()
SI_UNIT($,.RADIAN.)
);
#1801=(
CONVERSION_BASED_UNIT('INCH',#1803)
LENGTH_UNIT()
NAMED_UNIT(#1802)
);
#1802=DIMENSIONAL_EXPONENTS(1.,0.,0.,0.,0.,0.,0.);
#1803=LENGTH_MEASURE_WITH_UNIT(LENGTH_MEASURE(25.4),#1804);
#1804=(
LENGTH_UNIT()
NAMED_UNIT(*)
SI_UNIT(.MILLI.,.METRE.)
);
#1805=PRODUCT_DEFINITION_SHAPE('','',#1810);
#1806=PRODUCT_DEFINITION_SHAPE('','',#1811);
#1807=PRODUCT_DEFINITION_SHAPE(' ','NAUO PRDDFN',#21);
#1808=PRODUCT_DEFINITION_SHAPE('','',#1812);
#1809=PRODUCT_DEFINITION_SHAPE(' ','NAUO PRDDFN',#22);
#1810=PRODUCT_DEFINITION('','',#1816,#1813);
#1811=PRODUCT_DEFINITION('','',#1817,#1814);
#1812=PRODUCT_DEFINITION('','',#1818,#1815);
#1813=PRODUCT_DEFINITION_CONTEXT('',#1832,'design');
#1814=PRODUCT_DEFINITION_CONTEXT('',#1832,'design');
#1815=PRODUCT_DEFINITION_CONTEXT('',#1832,'design');
#1816=PRODUCT_DEFINITION_FORMATION_WITH_SPECIFIED_SOURCE('','',#1822,
 .NOT_KNOWN.);
#1817=PRODUCT_DEFINITION_FORMATION_WITH_SPECIFIED_SOURCE('','',#1823,
 .NOT_KNOWN.);
#1818=PRODUCT_DEFINITION_FORMATION_WITH_SPECIFIED_SOURCE('','',#1824,
 .NOT_KNOWN.);
#1819=PRODUCT_RELATED_PRODUCT_CATEGORY('','',(#1822));
#1820=PRODUCT_RELATED_PRODUCT_CATEGORY('','',(#1823));
#1821=PRODUCT_RELATED_PRODUCT_CATEGORY('','',(#1824));
#1822=PRODUCT('SSW-103-01-L-S','SSW-103-01-L-S','SSW-103-01-L-S',(#1828));
#1823=PRODUCT('T1SSW-103-01-L-S','T1SSW-103-01-L-S','T1SSW-103-01-L-S',
(#1829));
#1824=PRODUCT('P2SSW-103-01-L-S','P2SSW-103-01-L-S','P2SSW-103-01-L-S',
(#1830));
#1825=PRODUCT_CATEGORY('','');
#1826=PRODUCT_CATEGORY('','');
#1827=PRODUCT_CATEGORY('','');
#1828=PRODUCT_CONTEXT('',#1832,'mechanical');
#1829=PRODUCT_CONTEXT('',#1832,'mechanical');
#1830=PRODUCT_CONTEXT('',#1832,'mechanical');
#1831=APPLICATION_PROTOCOL_DEFINITION('international standard',
'automotive_design',2010,#1832);
#1832=APPLICATION_CONTEXT(
'core data for automotive mechanical design processes');
ENDSEC;
END-ISO-10303-21;
